<?xml version="1.0" encoding="UTF-8"?>
<!DOCTYPE svg PUBLIC "-//W3C//DTD SVG 1.1//EN" "http://www.w3.org/Graphics/SVG/1.1/DTD/svg11.dtd">
<svg version="1.1" xmlns="http://www.w3.org/2000/svg" xmlns:xlink="http://www.w3.org/1999/xlink" x="0" y="0" width="257.717" height="257.719" viewBox="0, 0, 257.717, 257.719">
  <defs>
    <clipPath id="Clip_1">
      <path d="M248.082,4.588 C255.937,4.588 262.305,10.955 262.305,18.812 L262.305,248.082 C262.305,255.938 255.936,262.307 248.082,262.307 L182.409,262.307 L182.409,162.504 L215.908,162.504 L220.924,123.609 L182.409,123.609 L182.409,98.777 C182.409,87.516 185.536,79.842 201.684,79.842 L222.28,79.833 L222.28,45.045 C218.718,44.571 206.492,43.512 192.268,43.512 C162.573,43.512 142.243,61.638 142.243,94.925 L142.243,123.609 L108.658,123.609 L108.658,162.504 L142.243,162.504 L142.243,262.307 L18.812,262.307 C10.954,262.307 4.588,255.937 4.588,248.082 L4.588,18.812 C4.588,10.955 10.955,4.588 18.812,4.588 L248.082,4.588 z"/>
    </clipPath>
    <filter id="InnerShadow_2">
      <feGaussianBlur in="SourceAlpha" stdDeviation="3"/>
      <feOffset dx="6" dy="6" result="offsetblur"/>
      <feFlood flood-color="#000000"/>
      <feComposite in2="offsetblur" operator="in"/>
    </filter>
  </defs>
  <g id="Layer_1" transform="translate(-4.588, -4.588)">
    <g opacity="0.88">
      <path d="M182.409,262.307 L182.409,162.504 L215.908,162.504 L220.924,123.609 L182.409,123.609 L182.409,98.777 C182.409,87.516 185.536,79.842 201.684,79.842 L222.28,79.833 L222.28,45.045 C218.718,44.571 206.492,43.512 192.268,43.512 C162.573,43.512 142.243,61.638 142.243,94.925 L142.243,123.609 L108.658,123.609 L108.658,162.504 L142.243,162.504 L142.243,262.307 L18.812,262.307 C10.954,262.307 4.588,255.937 4.588,248.082 L4.588,18.812 C4.588,10.955 10.955,4.588 18.812,4.588 L248.082,4.588 C255.937,4.588 262.305,10.955 262.305,18.812 L262.305,248.082 C262.305,255.938 255.936,262.307 248.082,262.307 L182.409,262.307 z" fill="#3C5A99"/>
      <path d="M-8.412,-8.412 L275.305,-8.412 L275.305,275.307 L-8.412,275.307 z M248.082,4.588 L18.812,4.588 C10.955,4.588 4.588,10.955 4.588,18.812 L4.588,248.082 C4.588,255.937 10.954,262.307 18.812,262.307 L142.243,262.307 L142.243,162.504 L108.658,162.504 L108.658,123.609 L142.243,123.609 L142.243,94.925 C142.243,61.638 162.573,43.512 192.268,43.512 C206.492,43.512 218.718,44.571 222.28,45.045 L222.28,79.833 L201.684,79.842 C185.536,79.842 182.409,87.516 182.409,98.777 L182.409,123.609 L220.924,123.609 L215.908,162.504 L182.409,162.504 L182.409,262.307 L248.082,262.307 C255.936,262.307 262.305,255.938 262.305,248.082 L262.305,18.812 C262.305,10.955 255.937,4.588 248.082,4.588 z" clip-path="url(#Clip_1)" filter="url(#InnerShadow_2)" fill="rgba(0,0,0,0.75)"/>
    </g>
  </g>
</svg>
