<?xml version="1.0" encoding="UTF-8"?>
<!DOCTYPE svg PUBLIC "-//W3C//DTD SVG 1.1//EN" "http://www.w3.org/Graphics/SVG/1.1/DTD/svg11.dtd">
<svg version="1.1" xmlns="http://www.w3.org/2000/svg" xmlns:xlink="http://www.w3.org/1999/xlink" x="0" y="0" width="41" height="41" viewBox="0, 0, 41, 41">
  <g id="Layer_1">
    <path d="M15.557,29.039 Q15.557,27.164 15.235,25.715 Q14.912,24.264 14.429,23.223 Q13.946,22.184 13.36,21.553 Q12.774,20.924 12.246,20.719 L12.246,20.279 Q12.774,20.074 13.36,19.444 Q13.946,18.814 14.429,17.774 Q14.912,16.734 15.235,15.284 Q15.557,13.834 15.557,11.959 L16.026,11.959 Q16.026,12.984 16.275,13.863 Q16.524,14.742 17.007,15.416 Q17.491,16.09 18.179,16.47 Q18.867,16.851 19.717,16.851 Q20.918,16.851 21.753,16.177 Q22.588,15.504 23.101,14.405 Q23.614,13.306 23.833,11.944 Q24.053,10.582 24.053,9.176 Q24.053,5.426 22.837,3.433 Q21.621,1.441 19.073,1.441 Q17.608,1.441 16.568,2.042 Q15.528,2.642 15.117,3.785 Q15.528,3.521 16.377,3.521 Q17.813,3.521 18.487,4.268 Q19.16,5.015 19.16,6.158 Q19.16,7.476 18.369,8.223 Q17.578,8.97 16.407,8.97 Q15,8.97 14.151,8.004 Q13.301,7.037 13.301,5.396 Q13.33,4.254 13.814,3.272 Q14.297,2.291 15.132,1.588 Q15.967,0.885 17.11,0.489 Q18.252,0.094 19.6,0.094 Q21.651,0.094 23.291,0.782 Q24.932,1.47 26.075,2.76 Q27.217,4.049 27.818,5.865 Q28.418,7.681 28.418,9.938 Q28.418,11.842 27.95,13.453 Q27.481,15.064 26.587,16.222 Q25.694,17.379 24.39,18.038 Q23.086,18.698 21.387,18.698 Q20.069,18.698 18.897,18.272 Q17.725,17.847 16.817,16.998 Q16.377,17.701 16.114,18.682 Q15.85,19.664 15.85,20.632 Q15.85,21.628 16.114,22.462 Q16.377,23.297 16.817,24 Q17.725,23.15 18.897,22.726 Q20.069,22.302 21.387,22.302 Q23.086,22.302 24.39,22.96 Q25.694,23.619 26.587,24.776 Q27.481,25.934 27.95,27.545 Q28.418,29.156 28.418,31.06 Q28.418,33.316 27.818,35.133 Q27.217,36.95 26.075,38.238 Q24.932,39.528 23.291,40.216 Q21.651,40.904 19.6,40.904 Q18.252,40.904 17.11,40.509 Q15.967,40.113 15.132,39.41 Q14.297,38.708 13.814,37.725 Q13.33,36.744 13.301,35.602 Q13.301,33.961 14.151,32.994 Q15,32.028 16.407,32.028 Q17.578,32.028 18.369,32.774 Q19.16,33.521 19.16,34.84 Q19.16,35.982 18.487,36.729 Q17.813,37.477 16.377,37.477 Q15.528,37.477 15.117,37.214 Q15.528,38.355 16.568,38.957 Q17.608,39.556 19.073,39.556 Q21.621,39.556 22.837,37.564 Q24.053,35.572 24.053,31.823 Q24.053,30.417 23.833,29.053 Q23.614,27.691 23.101,26.594 Q22.588,25.494 21.753,24.82 Q20.918,24.146 19.717,24.146 Q18.867,24.146 18.179,24.528 Q17.491,24.908 17.007,25.583 Q16.524,26.257 16.275,27.149 Q16.026,28.043 16.026,29.039 z M0,0.416 L5.684,0.416 L5.684,40.406 L0,40.406 z M8.526,0.416 L11.367,0.416 L11.367,40.406 L8.526,40.406 z" fill="#000000"/>
  </g>
</svg>
