<?xml version="1.0" encoding="UTF-8"?>
<!DOCTYPE svg PUBLIC "-//W3C//DTD SVG 1.1//EN" "http://www.w3.org/Graphics/SVG/1.1/DTD/svg11.dtd">
<svg version="1.1" xmlns="http://www.w3.org/2000/svg" xmlns:xlink="http://www.w3.org/1999/xlink" x="0" y="0" width="41" height="41" viewBox="0, 0, 41, 41">
  <g id="Layer_1">
    <path d="M41,40.569 L35.228,40.538 L35.287,0.46 L40.971,0.489 z M32.445,40.538 L29.574,40.48 L29.603,0.431 L32.445,0.489 z M21.986,11.739 Q23.246,11.739 24.081,12.589 Q24.916,13.439 24.916,14.698 Q24.916,15.87 24.022,16.75 Q23.129,17.628 21.928,17.628 Q20.727,17.628 19.877,16.779 Q19.027,15.929 19.027,14.698 Q19.027,13.409 19.862,12.574 Q20.697,11.739 21.986,11.739 z M21.986,23.693 Q23.246,23.693 24.081,24.557 Q24.916,25.421 24.916,26.71 Q24.916,27.97 24.066,28.79 Q23.217,29.611 21.928,29.611 Q20.668,29.611 19.833,28.79 Q18.998,27.97 18.998,26.71 Q18.998,25.421 19.862,24.557 Q20.727,23.693 21.986,23.693 z" fill="#000000"/>
  </g>
</svg>
