<?xml version="1.0" encoding="UTF-8"?>
<!DOCTYPE svg PUBLIC "-//W3C//DTD SVG 1.1//EN" "http://www.w3.org/Graphics/SVG/1.1/DTD/svg11.dtd">
<svg version="1.1" xmlns="http://www.w3.org/2000/svg" xmlns:xlink="http://www.w3.org/1999/xlink" x="0" y="0" width="41" height="41" viewBox="0, 0, 41, 41">
  <g id="Layer_1">
    <path d="M0.029,0.489 L5.713,0.46 L5.771,40.538 L0,40.569 z M8.555,0.489 L11.396,0.431 L11.426,40.48 L8.555,40.538 z M19.014,11.739 Q20.303,11.739 21.138,12.574 Q21.973,13.409 21.973,14.698 Q21.973,15.929 21.123,16.779 Q20.273,17.628 19.072,17.628 Q17.871,17.628 16.978,16.75 Q16.084,15.87 16.084,14.698 Q16.084,13.439 16.919,12.589 Q17.754,11.739 19.014,11.739 z M19.014,23.693 Q20.273,23.693 21.138,24.557 Q22.002,25.421 22.002,26.71 Q22.002,27.97 21.167,28.79 Q20.332,29.611 19.072,29.611 Q17.783,29.611 16.934,28.79 Q16.084,27.97 16.084,26.71 Q16.084,25.421 16.919,24.557 Q17.754,23.693 19.014,23.693 z" fill="#000000"/>
  </g>
</svg>
