<?xml version="1.0" encoding="UTF-8"?>
<!DOCTYPE svg PUBLIC "-//W3C//DTD SVG 1.1//EN" "http://www.w3.org/Graphics/SVG/1.1/DTD/svg11.dtd">
<svg version="1.1" xmlns="http://www.w3.org/2000/svg" xmlns:xlink="http://www.w3.org/1999/xlink" x="0" y="0" width="410" height="410" viewBox="0, 0, 410, 410">
  <defs>
    <clipPath id="Clip_1">
      <path d="M400,0 L400,400 L0,400 L0,0 L400,0 z M250.259,97.937 C245.432,98.002 247.501,97.974 244.053,98.02 C236.881,98.456 230.284,100.854 223.895,103.937 C203.434,114.887 192.863,138.203 198.11,160.81 C156.869,158.743 118.445,139.263 92.4,107.22 C78.786,130.656 85.74,160.639 108.28,175.69 C100.117,175.448 92.133,173.246 85,169.27 C85,169.48 85,169.7 85,169.92 C85.007,194.336 102.218,215.365 126.15,220.2 C118.599,222.259 110.676,222.56 102.99,221.08 C109.709,241.974 128.966,256.288 150.91,256.7 C132.747,270.974 110.311,278.723 87.21,278.7 C83.129,278.692 79.052,278.445 75,277.96 C98.456,293.013 125.749,300.997 153.62,300.96 L153.62,301 C247.96,301 299.56,222.84 299.56,155.06 C299.56,152.84 299.56,150.63 299.41,148.43 C309.448,141.169 318.114,132.179 325,121.88 C315.639,126.028 305.708,128.748 295.54,129.95 C306.247,123.54 314.261,113.458 318.09,101.58 C308.022,107.555 297.006,111.765 285.52,114.03 C276.823,104.861 264.975,99.072 252.322,98.034 L250.259,97.937 z"/>
    </clipPath>
    <filter id="InnerShadow_2">
      <feGaussianBlur in="SourceAlpha" stdDeviation="5"/>
      <feOffset dx="6" dy="6" result="offsetblur"/>
      <feFlood flood-color="#000000"/>
      <feComposite in2="offsetblur" operator="in"/>
    </filter>
  </defs>
  <g id="Layer_2_Copy" transform="translate(5, 5)">
    <g opacity="0.9">
      <path d="M400,0 L400,400 L0,400 L0,0 L400,0 z M244.053,98.02 C236.881,98.456 230.284,100.854 223.895,103.937 C203.434,114.887 192.863,138.203 198.11,160.81 C156.869,158.743 118.445,139.263 92.4,107.22 C78.786,130.656 85.74,160.639 108.28,175.69 C100.117,175.448 92.133,173.246 85,169.27 C85,169.48 85,169.7 85,169.92 C85.007,194.336 102.218,215.365 126.15,220.2 C118.599,222.259 110.676,222.56 102.99,221.08 C109.709,241.974 128.966,256.288 150.91,256.7 C132.747,270.974 110.311,278.723 87.21,278.7 C83.129,278.692 79.052,278.445 75,277.96 C98.456,293.013 125.749,300.997 153.62,300.96 L153.62,301 C247.96,301 299.56,222.84 299.56,155.06 C299.56,152.84 299.56,150.63 299.41,148.43 C309.448,141.169 318.114,132.179 325,121.88 C315.639,126.028 305.708,128.748 295.54,129.95 C306.247,123.54 314.261,113.458 318.09,101.58 C308.022,107.555 297.006,111.765 285.52,114.03 C276.823,104.861 264.975,99.072 252.322,98.034 C249.575,97.808 246.809,98.025 244.053,98.02 z" fill="#1DA1F2"/>
      <path d="M-17,-17 L417,-17 L417,417 L-17,417 z M250.259,97.937 L252.322,98.034 C264.975,99.072 276.823,104.861 285.52,114.03 C297.006,111.765 308.022,107.555 318.09,101.58 C314.261,113.458 306.247,123.54 295.54,129.95 C305.708,128.748 315.639,126.028 325,121.88 C318.114,132.179 309.448,141.169 299.41,148.43 C299.56,150.63 299.56,152.84 299.56,155.06 C299.56,222.84 247.96,301 153.62,301 L153.62,300.96 C125.749,300.997 98.456,293.013 75,277.96 C79.052,278.445 83.129,278.692 87.21,278.7 C110.311,278.723 132.747,270.974 150.91,256.7 C128.966,256.288 109.709,241.974 102.99,221.08 C110.676,222.56 118.599,222.259 126.15,220.2 C102.218,215.365 85.007,194.336 85,169.92 C85,169.7 85,169.48 85,169.27 C92.133,173.246 100.117,175.448 108.28,175.69 C85.74,160.639 78.786,130.656 92.4,107.22 C118.445,139.263 156.869,158.743 198.11,160.81 C192.863,138.203 203.434,114.887 223.895,103.937 C230.284,100.854 236.881,98.456 244.053,98.02 C247.501,97.974 245.432,98.002 250.259,97.937 z M400,0 L0,0 L0,400 L400,400 L400,0 z" clip-path="url(#Clip_1)" filter="url(#InnerShadow_2)" fill="rgba(0,0,0,0.75)"/>
    </g>
  </g>
</svg>
