<?xml version="1.0" encoding="UTF-8" standalone="no"?>
<!-- Created with Inkscape (http://www.inkscape.org/) -->

<svg
   xmlns:dc="http://purl.org/dc/elements/1.1/"
   xmlns:cc="http://creativecommons.org/ns#"
   xmlns:rdf="http://www.w3.org/1999/02/22-rdf-syntax-ns#"
   xmlns:svg="http://www.w3.org/2000/svg"
   xmlns="http://www.w3.org/2000/svg"
   xmlns:sodipodi="http://sodipodi.sourceforge.net/DTD/sodipodi-0.dtd"
   xmlns:inkscape="http://www.inkscape.org/namespaces/inkscape"
   version="1.1"
   id="svg3772"
   width="960"
   height="717"
   viewBox="0 0 960 717"
   sodipodi:docname="ulcc contacts.svg"
   inkscape:version="0.92.2 5c3e80d, 2017-08-06">
  <metadata
     id="metadata3778">
    <rdf:RDF>
      <cc:Work
         rdf:about="">
        <dc:format>image/svg+xml</dc:format>
        <dc:type
           rdf:resource="http://purl.org/dc/dcmitype/StillImage" />
        <dc:title></dc:title>
      </cc:Work>
    </rdf:RDF>
  </metadata>
  <defs
     id="defs3776" />
  <sodipodi:namedview
     pagecolor="#ffffff"
     bordercolor="#666666"
     borderopacity="1"
     objecttolerance="10"
     gridtolerance="10"
     guidetolerance="10"
     inkscape:pageopacity="0"
     inkscape:pageshadow="2"
     inkscape:window-width="1440"
     inkscape:window-height="855"
     id="namedview3774"
     showgrid="false"
     inkscape:zoom="0.89539749"
     inkscape:cx="480"
     inkscape:cy="358.5"
     inkscape:window-x="0"
     inkscape:window-y="1"
     inkscape:window-maximized="1"
     inkscape:current-layer="svg3772" />
  <path
     style="fill:#000000"
     d="m 542.09938,679.58424 c -0.36782,-0.36759 -9.74358,-0.69662 -20.83501,-0.73117 -29.23699,-0.0911 -37.39492,-0.36653 -64.66624,-2.18355 -13.475,-0.8978 -30.575,-1.60657 -38,-1.57505 -12.89404,0.0548 -25.30938,0.0682 -49.5,0.0536 -6.05,-0.004 -16.85,0.29468 -24,0.66297 -7.15,0.36829 -16.15,0.8198 -20,1.00337 -3.85,0.18356 -10.28635,-0.33148 -14.30299,-1.14453 -5.91864,-1.19807 -7.696,-2.00986 -9.37624,-4.2825 -2.47127,-3.34257 -5.1647,-4.2275 -8.39181,-2.75713 -1.76566,0.80449 -2.75293,0.7617 -3.87301,-0.16789 -1.31631,-1.09243 -1.32495,-1.59245 -0.0695,-4.02023 0.78858,-1.52495 1.16616,-3.04026 0.83907,-3.36735 -0.3271,-0.3271 -0.0317,-1.95406 0.65651,-3.61548 0.82704,-1.99663 1.01547,-4.9078 0.55581,-8.58677 -0.56148,-4.49394 -1.12579,-5.72964 -2.9298,-6.41552 -1.22891,-0.46723 -4.80872,-3.36287 -7.95513,-6.43476 -5.97821,-5.8366 -8.9695,-7.24564 -13.15291,-6.19568 -1.9718,0.49489 -2.5,0.24789 -2.5,-1.16908 0,-0.9881 0.70107,-2.79746 1.55793,-4.02081 1.87437,-2.67604 1.31618,-3.78543 -2.87631,-5.71656 -1.74989,-0.80602 -5.65662,-3.28842 -8.68162,-5.51644 -3.025,-2.22801 -7.99419,-5.3461 -11.04265,-6.92907 -4.89384,-2.54122 -6.35708,-2.83249 -12.5,-2.4882 -3.82654,0.21446 -7.85735,0.3602 -8.95735,0.32387 -4.11972,-0.13605 -5.10858,-0.0862 -9.5,0.47914 -2.475,0.31861 -10.575,0.52832 -18,0.46602 -7.425,-0.0623 -21.375,0.0151 -31,0.17192 -9.625,0.15684 -26.275,0.38444 -37,0.50576 -10.87595,0.12303 -25.02824,0.9431 -32.000002,1.85427 -12.56035,1.64158 -27.93136,2.02835 -46.5,1.17002 -33.0754,-1.52892 -43.4999999,-2.3726 -43.4999999,-3.52057 0,-1.76084 3.10204,-3.21216 5.5515799,-2.59736 1.41765,0.35581 9.18599,0.86198 17.26298,1.12483 8.07699,0.26285 18.51044,0.72749 23.18544,1.03253 4.675,0.30504 10.75,0.68745 13.5,0.8498 2.75,0.16234 10.4,-0.11782 17,-0.62259 6.6,-0.50477 13.35,-0.91825 15,-0.91884 1.65,-5.9e-4 5.025002,-0.4679 7.500002,-1.03846 2.475,-0.57056 19.35,-1.29186 37.5,-1.60289 37.36741,-0.64034 34.94289,-0.62781 51,-0.26352 6.79773,0.15423 13.13896,-0.18595 14.62723,-0.78467 1.44497,-0.58131 5.14844,-1.05692 8.22992,-1.05692 3.08148,0 5.99765,-0.24411 6.4804,-0.54246 0.48274,-0.29835 2.22694,-0.1555 3.87599,0.31745 1.64906,0.47294 4.1987,0.63042 5.66587,0.34995 2.47459,-0.47304 2.2566,-0.71427 -3.01318,-3.33431 -3.12442,-1.5534 -5.94749,-3.20987 -6.27349,-3.68103 -0.32601,-0.47117 -2.31724,-1.65939 -4.42496,-2.6405 -4.18402,-1.94759 -9.22402,-5.08245 -14.66778,-9.12331 -1.925,-1.42892 -5.75,-4.02749 -8.5,-5.77461 -5.30761,-3.37202 -6.58543,-4.30011 -9.29801,-6.75325 -0.93609,-0.84656 -3.50199,-2.69184 -5.70199,-4.10063 -4.18521,-2.68002 -7.15013,-5.02797 -13.71396,-10.86016 -6.34055,-5.6338 -7.68306,-7.10537 -13.54872,-14.85124 l -5.56683,-7.35124 0.012,-8.55048 c 0.01,-6.91401 0.3403,-8.79053 1.72731,-9.80474 1.11446,-0.81491 1.92058,-3.24329 2.30136,-6.93261 0.42478,-4.11573 1.11587,-5.99913 2.51133,-6.84402 2.28814,-1.38537 7.77751,-9.2063 7.77751,-11.08094 0,-0.72326 0.8393,-2.3882 1.8651,-3.69987 1.02581,-1.31167 3.1902,-4.85986 4.80975,-7.88486 1.61955,-3.025 4.09741,-7.31193 5.50635,-9.5265 1.40894,-2.21458 2.88031,-5.47708 3.26971,-7.25 0.3894,-1.77293 1.12225,-3.2235 1.62855,-3.2235 0.50629,0 0.92274,-1.0125 0.92542,-2.25 0.003,-1.2375 1.55551,-5.27152 3.45072,-8.96449 1.8952,-3.69297 4.08929,-8.88126 4.87575,-11.52955 0.78645,-2.64828 2.38195,-6.37676 3.54554,-8.28551 1.1636,-1.90875 2.11732,-4.86513 2.11937,-6.56975 0.002,-1.70461 1.51776,-5.97961 3.36823,-9.5 1.85047,-3.52038 4.13488,-8.75791 5.07646,-11.63894 0.94158,-2.88103 2.12756,-5.49509 2.63551,-5.80901 0.50795,-0.31393 0.92354,-1.70768 0.92354,-3.09723 0,-1.38954 1.575,-5.72348 3.5,-9.63096 1.925,-3.90749 3.5,-8.11747 3.5,-9.35552 0,-1.23806 0.39089,-2.49259 0.86865,-2.78786 0.47775,-0.29527 1.1418,-2.23433 1.47565,-4.30902 0.33386,-2.07469 1.51804,-5.55496 2.63153,-7.73394 1.11348,-2.17898 1.76212,-4.78851 1.44141,-5.79896 -0.3207,-1.01045 0.2339,-3.05265 1.23245,-4.53822 2.39823,-3.56791 2.68793,-7.64748 0.80203,-11.29441 -1.37173,-2.65263 -1.37349,-3.12772 -0.0166,-4.4846 1.17867,-1.17868 1.97552,-1.27263 3.56752,-0.42062 1.63385,0.87441 2.83206,0.65743 5.90412,-1.06916 3.32292,-1.86759 4.32581,-2.0106 7.27471,-1.03737 3.49924,1.15485 9.53466,0.46888 17.884,-2.03264 2.83475,-0.84931 6.05574,-0.85429 12.62035,-0.0195 11.15003,1.41787 13.07685,0.93926 13.90083,-3.45291 0.34976,-1.86439 1.0139,-3.38981 1.47585,-3.38981 2.58713,0 11.96496,3.07736 15.19593,4.98659 2.34323,1.38464 4.41421,1.94974 5.5,1.50074 1.19952,-0.49603 1.34895,-0.86669 0.48011,-1.19091 -2.18397,-0.81497 -3.51837,-4.25432 -2.2456,-5.78791 0.93777,-1.12995 1.74476,-0.94762 4.70894,1.06392 1.96747,1.33517 4.41442,2.42757 5.43767,2.42757 1.02325,0 1.86045,0.60526 1.86045,1.34501 0,0.73976 0.79778,2.06699 1.77284,2.94941 2.22613,2.01462 4.66452,0.72215 4.70101,-2.49179 0.0213,-1.87682 0.52755,-2.26879 2.73754,-2.11965 2.24428,0.15145 3.6133,-0.96468 7.94667,-6.4788 5.97585,-7.60411 10.94727,-17.20394 11.06565,-21.36779 0.0811,-2.8522 0.57577,-3.18614 4.30294,-2.90478 1.11465,0.0841 3.73369,-0.56027 5.82007,-1.43201 3.35375,-1.40129 3.72813,-1.8988 3.23001,-4.2923 -0.30988,-1.48901 -0.78936,-9.4573 -1.0655,-17.7073 -0.72719,-21.7259 -1.28073,-25.5 -3.74,-25.5 -1.80168,0 -1.93192,-0.4428 -1.3235,-4.5 0.74901,-4.99477 0.54445,-5.19621 -2.95087,-2.90599 -1.33803,0.87671 -2.9767,1.41271 -3.64149,1.19111 -1.23387,-0.41129 -2.21181,-10.38457 -2.01358,-20.53512 0.085,-4.35244 -0.19364,-5.25 -1.62985,-5.25 -4.15535,0 -10.67155,-9.52646 -9.52228,-13.92126 0.7382,-2.8229 -0.45947,-7.07874 -1.99209,-7.07874 -0.69538,0 -4.13621,-1.4625 -7.64628,-3.25 -10.63988,-5.41834 -12.36043,-11.60131 -6.55861,-23.56897 1.41823,-2.92544 4.08636,-6.82673 5.92917,-8.66955 l 3.35058,-3.35057 -1.46973,-7.14311 c -1.33929,-6.50917 -1.31945,-7.51472 0.22351,-11.33045 0.93128,-2.30304 1.88625,-4.6697 2.12215,-5.25923 0.56538,-1.41292 -3.93987,-3.42523 -6.29771,-2.81294 -1.01786,0.26433 -2.65846,-0.11227 -3.64579,-0.83688 -1.7001,-1.24773 -1.6346,-1.63408 1.23733,-7.29789 2.06946,-4.08122 3.0365,-7.45418 3.04514,-10.62121 0.007,-2.55243 0.83093,-6.468435 1.83102,-8.702215 1.79985,-4.02008 10.59472,-13.41586 15.67162,-16.74237 3.36178,-2.20273 1.77643,-3.37811 -4.58498,-3.3993 -3.37131,-0.0112 -5.08764,0.52903 -6.44483,2.0287 -2.52449,2.78953 -5.87543,2.18493 -6.26072,-1.12961 -0.16725,-1.43883 0.38715,-3.15634 1.25,-3.87245 0.85281,-0.70778 1.55056,-1.76469 1.55056,-2.3487 0,-3.02401 4.47116,-9.77372 7.75957,-11.71393 4.80907,-2.837414 13.75173,-4.287604 17.94146,-2.909479 3.86328,1.270746 5.84632,0.397248 12.39445,-5.459559 7.37048,-6.59234 18.24338,-14.244037 24.03876,-16.917048 6.69779,-3.089234 17.22519,-4.190969 19.38721,-2.02895 0.8132,0.8132 1.47855,1.866079 1.47855,2.33973 0,0.934284 -3.50051,2.31683 -6.14565,2.427258 -1.74135,0.0727 -10.30294,7.453448 -9.53579,8.220593 0.2474,0.247404 3.98944,-0.434673 8.31563,-1.515727 8.87388,-2.217453 24.59064,-3.418292 44.02737,-3.363908 14.30799,0.04003 14.17632,0.01757 25.76898,4.396349 4.54285,1.715924 9.00652,2.789837 10.44939,2.514016 3.65777,-0.699228 6.91436,0.864489 7.3172,3.5135 0.22005,1.447 0.89941,2.15939 1.82661,1.915395 0.81194,-0.213666 3.83708,-0.60675 6.72253,-0.873521 4.88648,-0.451774 5.55295,-0.233732 9.71829,3.179449 2.45961,2.015467 5.87163,4.152392 7.58227,4.748722 5.76743,2.01054 5.77307,9.64781 0.006,8.49445 -2.84771,-0.56959 -7.05283,1.52907 -7.05283,3.52001 0,0.58698 2.0537,2.87497 4.56378,5.08443 6.31206,5.55609 11.91106,14.57247 13.99246,22.53283 1.01706,3.889785 2.72218,7.649775 4.06348,8.960495 1.27244,1.24344 2.05807,2.9177 1.74812,3.72543 -0.60661,1.58079 -5.82035,4.51619 -8.02148,4.51619 -0.7405,0 -2.25398,0.90762 -3.36329,2.01693 -1.88282,1.88282 -1.91436,2.21526 -0.47432,5 0.84844,1.64069 1.91271,2.98307 2.36506,2.98307 2.76072,0 5.2733,14.64869 2.78424,16.2325 -0.78252,0.49792 -0.65541,0.74184 0.39195,0.75219 0.8525,0.008 2.02309,-0.45778 2.60132,-1.03601 1.83056,-1.83056 8.78774,1.03657 10.90951,4.49593 3.21169,5.23639 3.72607,6.87865 4.05987,12.96203 0.3264,5.9486 -0.36247,7.34449 -5.14766,10.43096 -2.71058,1.74834 -7.11976,8.98535 -7.30852,11.99584 -0.24342,3.88233 -3.52273,10.76062 -6.5535,13.74586 -4.2117,4.1484 -5.15987,5.95625 -4.88708,9.31801 0.15162,1.86852 0.66709,3.89352 1.14548,4.5 0.47839,0.60648 1.15546,2.69208 1.5046,4.63466 0.34914,1.94258 1.98282,5.00785 3.63039,6.81172 1.64757,1.80386 2.99559,4.11983 2.99559,5.1466 0,2.67271 -2.70448,5.0072 -5.82143,5.02502 -3.56507,0.0204 -4.31763,0.69029 -6.72316,5.98469 -1.81396,3.9924 -2.02106,6.24841 -1.83597,20 0.11474,8.525 0.26798,21.33622 0.34054,28.46938 0.14295,14.05455 0.31573,14.48944 5.76697,14.51531 2.33456,0.0111 3.68319,0.71163 4.87678,2.53328 1.16696,1.78101 2.39734,2.43955 4.20377,2.25 1.96171,-0.20583 3.09178,0.54362 4.87345,3.23203 5.37932,8.117 14.55789,18.1102 17.76384,19.34044 0.85536,0.32823 1.55521,1.29449 1.55521,2.14723 0,1.18787 0.64307,1.39305 2.75,0.87741 1.5125,-0.37016 2.975,-0.94124 3.25,-1.26905 1.28037,-1.52628 10.36423,-5.09603 12.96773,-5.09603 3.58494,0 4.46423,1.306 4.17537,6.2016 -0.12326,2.08912 0.11019,3.7984 0.51878,3.7984 0.4086,0 2.11433,-1.3172 3.79051,-2.9271 3.25824,-3.12941 1.79541,-2.88886 28.04761,-4.6121 4.99909,-0.32814 13.55459,-0.52622 20.5,-0.4746 0.825,0.006 3.12408,-0.25509 5.10906,-0.58048 2.93527,-0.48117 3.72275,-0.24755 4.21803,1.25133 0.33493,1.01362 1.97335,4.26772 3.64094,7.23132 1.66758,2.96361 3.03197,6.00111 3.03197,6.75 0,0.7489 0.39942,1.36163 0.8876,1.36163 0.48818,0 2.34128,3.60626 4.11801,8.01392 1.77673,4.40765 3.62825,8.2598 4.1145,8.56031 0.48625,0.30052 2.26159,3.32278 3.94521,6.71614 1.68363,3.39336 3.37018,6.40372 3.74791,6.68969 0.7971,0.60347 5.13245,10.57367 5.87889,13.51994 0.59492,2.34823 1.68523,4.88658 7.30204,17 2.29524,4.95 4.389,10.12104 4.6528,11.4912 0.26379,1.37016 1.21403,3.30271 2.11164,4.29455 0.8976,0.99184 1.7795,2.7958 1.95977,4.0088 0.18027,1.213 1.68702,4.10636 3.34833,6.42969 1.66132,2.32333 4.07834,6.59833 5.37117,9.5 1.29283,2.90167 5.54819,10.89589 9.45636,17.76494 3.90817,6.86904 7.10577,12.89443 7.10577,13.38975 0,0.49532 0.6303,1.40019 1.40067,2.01083 0.77037,0.61063 2.82262,3.81024 4.56056,7.11024 1.73794,3.3 4.67776,8.025 6.53294,10.5 1.85518,2.475 3.40292,5.2875 3.43944,6.25 0.0365,0.9625 0.61821,1.6375 1.29265,1.5 0.67444,-0.1375 1.39198,0.8483 1.59454,2.19067 0.20255,1.34236 1.45073,3.85984 2.77374,5.59439 1.323,1.73455 2.40546,3.49629 2.40546,3.91497 0,0.41869 1.125,2.09824 2.5,3.73234 1.375,1.63409 2.5,3.52413 2.5,4.20008 0,0.67594 1.125,2.75384 2.5,4.61755 4.46689,6.05453 2.97077,19.42741 -2.53751,22.68123 -1.62937,0.96249 -2.96249,2.00267 -2.96249,2.31152 0,2.91439 -23.48892,22.26184 -35.73305,29.43274 -3.42818,2.00775 -8.27194,5.4151 -10.76391,7.57188 -2.49197,2.15679 -7.4496,6.0042 -11.01695,8.54981 -3.56735,2.54561 -6.48609,4.80139 -6.48609,5.01286 0,0.21147 5.5125,0.38528 12.25,0.38624 6.7375,9.6e-4 17.2,0.66052 23.25,1.46568 16.11942,2.14526 35.62608,2.81665 86,2.95999 24.75,0.0704 45.55774,0.48916 46.23941,0.93052 1.3835,0.89577 26.71598,1.05179 35.26059,0.21717 3.025,-0.29547 9.55,-0.74641 14.5,-1.00209 4.95,-0.25568 11.44815,-1.10802 14.44033,-1.89409 5.20729,-1.36801 10.0826,-0.83322 10.04436,1.10179 -0.049,2.47963 -2.12289,3.59379 -6.38907,3.43243 -2.51998,-0.0953 -15.1551,0.50352 -28.07803,1.33076 -19.1545,1.22614 -25.85423,1.28491 -36.25692,0.318 -13.24888,-1.23145 -17.71125,-1.31051 -52.84441,-0.93621 -26.20583,0.27918 -50.82783,-0.51174 -77.41626,-2.48683 -25.33695,-1.88212 -42.5749,-1.9688 -46.55857,-0.23413 -1.61779,0.70446 -5.43887,3.54656 -8.4913,6.31578 -3.05242,2.76922 -8.11492,6.3261 -11.25,7.90418 -3.13507,1.57807 -5.72015,3.15307 -5.74461,3.5 -0.76761,10.88441 -0.5571,10.3295 -5.6054,14.77565 -2.66756,2.34938 -8.00012,5.90825 -11.85012,7.9086 -14.67872,7.62663 -17.33928,9.73032 -15.34504,12.13323 0.84977,1.02392 0.69273,1.82411 -0.64892,3.30662 -1.70906,1.88849 -1.67851,1.9906 0.88761,2.96624 1.46168,0.55573 2.91027,1.66887 3.2191,2.47365 0.55813,1.45446 -2.20146,7.37586 -4.11275,8.82496 -0.55,0.41699 -5.275,0.46394 -10.5,0.10432 -5.225,-0.35961 -32.225,-0.74446 -60,-0.85521 -49.73933,-0.19834 -62.40821,-0.52783 -103,-2.67886 -24.82542,-1.31553 -73.59252,-1.63441 -80.5,-0.52637 -5.3392,0.85647 -32.02379,2.07723 -39.49131,1.80664 -4.19526,-0.15202 -4.38124,-0.0527 -2.8215,1.50706 1.90579,1.90579 3.31097,1.93 81.81281,1.41001 29.49472,-0.19538 53.08269,0.13901 64.5,0.91436 26.90621,1.82721 37.80813,2.0857 86.5,2.05095 47.28698,-0.0338 49.79939,-0.098 51.75,-1.32368 2.60262,-1.63535 4.35809,2.03933 2.42701,5.08042 -1.06508,1.67733 -8.99645,2.52249 -13.79658,1.47016 -2.13424,-0.46789 -4.94543,-0.58972 -6.24709,-0.27073 -1.30166,0.31898 -7.37666,0.23345 -13.5,-0.19006 -6.45732,-0.44661 -12.25264,-0.38162 -13.79833,0.15474 -1.46574,0.50862 -2.96593,0.62401 -3.33376,0.25642 z m 57.24337,-14.47404 c 0.68454,-0.44313 1.70944,-1.67421 2.27754,-2.73572 0.92268,-1.72404 0.78984,-1.83844 -1.24462,-1.07186 -1.25265,0.47199 -5.39805,0.92278 -9.212,1.00176 -3.81396,0.079 -9.0734,0.77878 -11.68766,1.55513 -4.10221,1.21823 -4.91485,1.21676 -5.93356,-0.0107 -0.6492,-0.78224 -0.94986,-2.30374 -0.66812,-3.38111 0.79741,-3.04928 -1.33132,-4.7697 -6.7762,-5.47645 -2.75,-0.35695 -5.45,-0.63627 -6,-0.62071 -0.55,0.0156 -6.625,0.33009 -13.5,0.69895 -17.82434,0.95631 -45.91525,0.97403 -72,0.0454 -19.14522,-0.68158 -51.90092,-0.98474 -68,-0.62936 -8.69471,0.19193 -44.54948,-1.07036 -49,-1.72507 -2.475,-0.3641 -5.625,-0.64533 -7,-0.62497 -1.375,0.0204 -7.03573,0.0918 -12.5794,0.15871 -9.72884,0.11746 -10.07664,0.19876 -10,2.33749 0.13737,3.83361 -4.38246,5.09586 -19.31725,5.39471 -12.67502,0.25363 -15.02152,0.78088 -15.08487,3.38949 -0.0475,1.95645 34.3109,1.37422 55.13532,-0.93431 9.71998,-1.07753 56.53531,-0.85917 68.8462,0.32111 3.575,0.34274 13.7,0.86751 22.5,1.16615 22.59987,0.76694 35.80858,1.4223 36.18145,1.79516 0.72932,0.72933 121.92116,0.0855 123.06317,-0.6538 z m -12.98915,-7.23661 c 2.03018,-0.84826 4.60323,-1.47345 5.71788,-1.38931 5.38317,0.40637 5.50464,0.27261 4.92449,-5.42289 -0.43841,-4.30407 -0.13931,-6.02063 1.52464,-8.75 1.13852,-1.86753 2.07173,-4.57231 2.07378,-6.01064 0.002,-1.43833 0.90374,-3.75931 2.00374,-5.15773 1.1,-1.39842 2.00188,-3.37161 2.00419,-4.38486 0.002,-1.01325 1.02994,-3.86727 2.28365,-6.34227 1.25371,-2.475 2.87394,-7.2 3.60051,-10.5 0.72657,-3.3 1.73715,-6.9 2.24573,-8 0.50858,-1.1 1.55686,-4.25 2.32952,-7 4.36463,-15.53442 7.74597,-25.82033 10.37024,-31.54588 4.40401,-9.60854 7.62362,-18.0432 12.19728,-31.95412 2.26037,-6.875 4.75307,-13.49667 5.53932,-14.71482 0.78626,-1.21815 1.42956,-3.30055 1.42956,-4.62755 0,-1.32701 0.6833,-2.97983 1.51845,-3.67295 0.83515,-0.69311 2.24636,-2.88571 3.13602,-4.87244 0.88966,-1.98673 2.92636,-6.53724 4.526,-10.11224 1.59964,-3.575 3.71974,-8.075 4.71134,-10 0.99159,-1.925 2.41983,-5.6375 3.17386,-8.25 0.75403,-2.6125 1.70953,-4.75 2.12334,-4.75 0.4138,0 1.88913,-2.3625 3.2785,-5.25 1.38938,-2.8875 2.94903,-5.925 3.4659,-6.75 3.95331,-6.31004 5.26675,-13.75907 2.78868,-15.81568 -0.71003,-0.58927 -6.15372,-1.10776 -12.25,-1.16676 -16.57253,-0.1604 -16.90711,-0.1393 -23.0119,1.45079 -3.57678,0.93164 -6.3024,1.15128 -7.34727,0.59208 -0.9447,-0.50558 -5.10088,-0.5336 -9.637,-0.065 -7.6083,0.78604 -22.98281,0.71969 -110.47592,-0.47678 -21.175,-0.28957 -45.85655,-0.5254 -54.84789,-0.52407 -8.99133,0.001 -16.80958,-0.28293 -17.37388,-0.63168 -0.5643,-0.34876 -12.55775,-0.80091 -26.65211,-1.00479 -14.09437,-0.20388 -27.20112,-0.53584 -29.12612,-0.7377 -1.925,-0.20185 -9.35,-0.8794 -16.5,-1.50567 -7.15,-0.62627 -15.025,-1.44761 -17.5,-1.82519 -2.475,-0.37758 -4.90943,-0.57323 -5.40985,-0.43477 -0.90942,0.25163 -60.30973,1.48732 -64.09015,1.33326 -1.1,-0.0448 -11.85458,-0.11328 -23.89908,-0.15212 -18.30077,-0.059 -22.29285,0.18739 -24.29558,1.49963 -1.31808,0.86364 -3.16853,1.32522 -4.11211,1.02574 -1.87946,-0.59652 -7.86861,4.90323 -6.35695,5.83748 0.48014,0.29675 1.89035,3.59091 3.13379,7.32037 1.24343,3.72945 3.78385,9.97804 5.64536,13.88575 1.86151,3.90771 3.38457,7.79026 3.38457,8.62788 0,0.83762 0.71788,3.2654 1.59528,5.39507 2.9427,7.14261 4.56608,10.85941 5.54949,12.70575 1.01261,1.90117 5.26073,13.73331 6.97111,19.41637 0.53797,1.7875 1.35363,3.25 1.81259,3.25 0.67795,0 2.67474,4.70441 4.45674,10.5 0.40421,1.31459 2.42714,6.47498 3.52811,9 3.14997,7.22431 5.08668,13.1541 5.08668,15.57434 0,1.54419 0.39812,3.05368 0.8847,3.3544 0.48659,0.30073 1.12362,1.78979 1.41563,3.30902 0.63894,3.32429 4.09364,13.22522 5.53648,15.86718 3.63033,6.64748 12.074,28.79684 12.73069,33.39506 0.23784,1.66538 4.08783,11.37834 5.74747,14.5 6.08412,11.44383 9.91031,22.6458 10.07615,29.5 l 0.10888,4.5 6,-0.19667 c 14.04941,-0.46051 16.39572,-1.26721 19.14417,-6.58212 1.28401,-2.48301 1.9156,-2.82141 4.18406,-2.24179 4.84764,1.23863 37.11616,2.51023 73.17177,2.88349 19.525,0.20213 52.825,0.73931 74,1.19375 47.88453,1.02766 49.28405,1.02827 67,0.0295 21.30293,-1.201 32.27562,-1.31702 34.25,-0.36215 1.2301,0.59492 1.75,2.02425 1.75,4.81117 0,3.57589 0.24839,3.96482 2.53212,3.96482 1.39266,0 4.19317,-0.69403 6.22335,-1.5423 z M 427.59813,560.76184 c -1.925,-1.91105 -3.37946,-3.91979 -3.23214,-4.46387 0.14732,-0.54407 -0.3942,-1.65128 -1.20338,-2.46046 -2.63177,-2.63177 -8.04415,-9.84398 -9.87377,-13.1572 -1.7591,-3.18552 -1.54949,-10.26442 0.30395,-10.26442 0.42464,0 0.98931,-0.83069 1.25481,-1.84597 0.5638,-2.15598 8.26633,-6.15403 11.85616,-6.15403 4.39147,0 14.31059,3.04239 16.43938,5.04229 1.33249,1.25181 2.41327,1.59943 3.03615,0.97655 0.53194,-0.53194 2.75629,-1.58824 4.943,-2.34734 3.49115,-1.21192 4.70852,-1.17109 9.98595,0.33497 3.59254,1.02524 6.84647,1.40577 8.08931,0.94601 2.70973,-1.0024 3.73017,-0.25007 5.88695,4.34022 1.72904,3.6799 1.7241,3.85834 -0.16605,6 -1.07145,1.21401 -3.04434,4.45373 -4.3842,7.19937 -1.33987,2.74563 -2.94367,5.44563 -3.56401,6 -0.62034,0.55436 -1.92708,3.16665 -2.90387,5.8051 -1.92278,5.1937 -3.34449,6.39064 -7.96824,6.70851 -5.81986,0.4001 -7.61491,-0.0297 -9.97302,-2.38779 l -2.38211,-2.38211 -3.32244,2.3599 c -5.44284,3.86602 -8.74135,3.80178 -12.82243,-0.24973 z m 31.83722,-3.74535 c 0.4963,-0.30673 1.48507,-2.02984 2.19727,-3.82914 0.71219,-1.7993 1.81135,-3.94646 2.44258,-4.77146 0.63122,-0.825 1.99575,-3.45751 3.03228,-5.85002 1.7659,-4.07603 1.77711,-4.41016 0.17804,-5.30505 -0.9386,-0.52527 -2.35428,-2.50526 -3.14595,-4.39998 -1.33155,-3.18685 -1.76917,-3.44495 -5.84119,-3.44495 -2.42099,0 -5.83358,0.49912 -7.58354,1.10916 -2.68473,0.9359 -3.99673,0.75375 -8.39922,-1.16611 -6.03044,-2.62978 -11.85017,-3.27672 -16.43476,-1.82694 -3.58412,1.1334 -8.28273,6.1048 -8.28273,8.76361 0,2.02001 5.47078,9.8104 8.73797,12.44286 1.24412,1.00242 2.26203,2.21946 2.26203,2.70455 0,1.01503 4.76595,5.97287 5.7417,5.97287 0.35794,0 2.31283,-1.15179 4.3442,-2.55953 3.46831,-2.40354 3.89819,-2.47289 7.05375,-1.13801 1.84819,0.78183 4.18065,2.34279 5.18324,3.46881 1.46107,1.64093 2.39745,1.88253 4.71743,1.21717 1.592,-0.45658 3.3006,-1.08111 3.7969,-1.38784 z m 12.58969,-24.71886 c -0.67422,-1.09092 -4.42691,-1.7475 -4.42691,-0.77455 0,0.50597 0.53735,1.78039 1.19412,2.83204 1.10165,1.76403 1.28837,1.78319 2.41132,0.24746 0.66947,-0.91555 1.03913,-1.95278 0.82147,-2.30495 z m -28.8415,-12.51976 c -1.33876,-3.48877 6.58351,-11.02414 16.08954,-15.30378 6.71928,-3.02503 8.65023,-2.35688 7.74147,2.67874 -0.3735,2.06968 -0.8452,4.05792 -1.04821,4.4183 -0.61249,1.08726 -9.3089,5.94817 -11.34211,6.33973 -1.04297,0.20086 -2.71301,0.78441 -3.7112,1.29678 -3.92485,2.01462 -7.08574,2.24781 -7.72949,0.57023 z m 9.2129,-5.23167 c 8.54342,-4.31519 10.20169,-5.32357 10.20169,-6.20355 0,-1.41893 -1.71693,-1.11694 -5.78984,1.01838 -4.05022,2.12342 -10.19272,6.9612 -8.91185,7.0189 0.43906,0.0198 2.46406,-0.8054 4.5,-1.83373 z m 156.20169,127.98398 c 0.275,-0.33888 2.63622,-1.65916 5.24716,-2.93395 5.49811,-2.68446 14.60966,-9.64364 15.43198,-11.78657 0.30988,-0.80754 -0.1738,-2.28288 -1.07485,-3.27854 -1.56881,-1.7335 -1.73628,-5.31657 -0.31493,-6.73792 1.1328,-1.13281 -0.43542,-5.66272 -3.41945,-9.87731 -1.55766,-2.2 -3.12186,-5.4625 -3.47601,-7.25 -0.35414,-1.7875 -1.0019,-3.25 -1.43944,-3.25 -0.43755,0 -1.08251,1.4625 -1.43324,3.25 -0.35074,1.7875 -1.00108,4.15 -1.44521,5.25 -1.45599,3.6061 -5.22984,14.89979 -6.64894,19.89774 -0.76486,2.69376 -2.00267,5.84376 -2.75068,7 -0.74801,1.15624 -1.67757,3.45226 -2.06569,5.10226 -0.38812,1.65 -0.95373,3.83192 -1.25691,4.84872 -0.46315,1.55332 -0.17594,1.73152 1.79749,1.11522 1.2918,-0.40343 2.57372,-1.01077 2.84872,-1.34965 z m -317,-4.28096 c 0,-0.64166 -0.27857,-0.88809 -0.61905,-0.54762 -0.92086,0.92087 -2.83867,-1.33524 -4.93922,-5.81049 -1.02622,-2.18637 -2.35384,-4.47829 -2.95028,-5.09314 -0.59644,-0.61486 -1.95682,-4.77959 -3.02308,-9.25496 -1.06625,-4.47537 -2.31253,-8.0124 -2.76952,-7.86007 -0.45699,0.15233 -1.78239,1.94189 -2.94534,3.9768 -2.04114,3.57159 -2.05198,3.76886 -0.3127,5.69075 0.99097,1.095 1.5363,2.68267 1.21186,3.52815 -0.64933,1.69211 -3.65267,2.13385 -3.65267,0.53725 0,-0.55 -0.45,-1 -1,-1 -2.43012,0 -0.69655,2.81069 2.07552,3.3651 2.00609,0.40122 5.22254,2.84652 9.25,7.03229 5.74936,5.97536 9.67448,8.18082 9.67448,5.43594 z m 341.35231,-20.0723 c -1.03922,-1.68149 -2.35231,-0.60408 -2.35231,1.9301 0,2.56202 0.0677,2.59853 1.41132,0.76103 0.77623,-1.06156 1.19968,-2.27257 0.94099,-2.69113 z m -360.9835,-7.67251 c 2.96272,-5.0551 3.38355,-6.53998 2.90499,-10.25 -0.30779,-2.38618 -1.35238,-5.47268 -2.32129,-6.85888 -0.96891,-1.3862 -2.55794,-4.9862 -3.53116,-8 -0.97323,-3.0138 -2.81617,-7.1582 -4.09543,-9.20977 -1.27925,-2.05157 -2.32592,-4.31394 -2.32592,-5.02749 0,-0.71355 -0.60791,-2.185 -1.35091,-3.26987 -1.47788,-2.15789 -3.65507,-9.15207 -6.19473,-19.90043 -0.90032,-3.81036 -2.79453,-9.43536 -4.20936,-12.5 -3.55463,-7.69969 -5.21271,-12.31531 -4.71396,-13.12231 0.44255,-0.71606 -3.4485,-4.64594 -4.14053,-4.18185 -0.21973,0.14736 -1.47402,-0.002 -2.7873,-0.33137 -3.11006,-0.78058 -8.37207,1.96204 -9.80708,5.11155 -1.17655,2.58225 -1.6906,2.81336 -4.1546,1.86784 -2.64091,-1.01342 0.18898,-5.11602 5.13144,-7.43925 6.58884,-3.09712 4.3796,-4.35491 -6.44883,-3.67154 -4.85328,0.30629 -9.7069,0.70043 -10.78583,0.87587 -1.23083,0.20014 -2.09621,-0.33192 -2.32276,-1.42811 -0.58477,-2.82945 4.26635,-4.0074 17.03015,-4.13525 6.46014,-0.0647 11.74764,-0.44625 11.75,-0.84786 0.005,-0.8825 -4.03891,-11.34581 -8.60736,-22.2698 -1.84009,-4.4 -3.64886,-9.35 -4.01947,-11 -0.37062,-1.65 -1.47412,-4.03363 -2.45222,-5.29696 -0.9781,-1.26333 -2.06341,-3.59473 -2.41179,-5.1809 -0.34838,-1.58617 -1.27949,-3.42014 -2.06914,-4.07549 -0.78965,-0.65535 -1.43572,-2.22497 -1.43572,-3.48806 0,-2.62806 -2.89222,-8.56976 -4.75,-9.75828 -2.11528,-1.35325 -1.39276,-3.57512 1.67913,-5.16366 1.61102,-0.83309 3.21635,-2.41965 3.56739,-3.52568 0.35104,-1.10603 1.36,-2.01097 2.24213,-2.01097 0.88213,0 2.4521,-0.76764 3.48883,-1.70587 1.72512,-1.56121 6.86241,-1.72583 60.57874,-1.94125 32.28158,-0.12946 59.36878,-0.36664 60.19378,-0.52706 0.825,-0.16042 4.5544,0.27926 8.28755,0.97707 3.73315,0.6978 7.15711,1.04033 7.60879,0.76117 0.45168,-0.27915 5.23308,0.15473 10.62532,0.96419 5.39225,0.80946 11.5025,1.47175 13.57834,1.47175 3.70442,0 3.76444,-0.0605 3.24359,-3.2701 -0.41771,-2.57407 -0.006,-3.79795 1.93564,-5.75 1.35646,-1.36395 2.804,-4.0549 3.21674,-5.9799 0.41275,-1.925 1.8825,-5.74586 3.2661,-8.49079 1.38361,-2.74493 2.90317,-6.23243 3.37679,-7.75 0.47363,-1.51757 1.28649,-4.13279 1.80636,-5.81161 0.72867,-2.35309 0.62284,-3.17612 -0.46195,-3.5924 -1.60874,-0.61732 -11.36135,-10.2081 -13.21835,-12.99899 -2.23235,-3.355 -4.26492,-8.55892 -4.26492,-10.91932 0,-2.91594 -1.83366,-4.17467 -2.54972,-1.75027 -0.56891,1.92617 -6.69855,15.13433 -8.95073,19.28705 -1.91677,3.53428 -3.79937,3.94512 -2.50749,0.54721 1.363,-3.58496 1.33786,-3.64179 -1.31626,-2.97565 -2.70644,0.67928 -5.216,-1.6951 -4.30389,-4.07203 0.32761,-0.85374 0.20538,-2.32198 -0.27162,-3.26273 -0.477,-0.94076 -3.23216,-6.56052 -6.12256,-12.48835 -2.89041,-5.92783 -6.43033,-11.7783 -7.86651,-13.00103 -1.43617,-1.22273 -4.14797,-4.24769 -6.02622,-6.72212 -5.39116,-7.10241 -18.37688,-19.99897 -20.13723,-19.99897 -0.87953,0 -2.67361,1.14371 -3.98684,2.54159 -3.13478,3.33682 -6.16495,2.87407 -7.46236,-1.13962 -1.2454,-3.85277 -3.4246,-6.56572 -4.66044,-5.80193 -0.56322,0.34809 -0.51128,1.08886 0.13056,1.86224 0.5862,0.70632 0.79826,1.98147 0.47124,2.83365 -1.04512,2.72356 -3.534,2.80271 -6.61483,0.21036 -1.6382,-1.37846 -3.50652,-2.50906 -4.15183,-2.51245 -0.6453,-0.003 -2.38046,-0.63598 -3.85591,-1.40575 -1.47545,-0.76977 -4.02135,-1.69362 -5.65755,-2.05299 -2.69596,-0.59213 -3.03636,-0.37367 -3.63014,2.32981 -0.77833,3.54371 -4.54416,5.22382 -8.98357,4.00799 -6.70522,-1.83638 -23.19723,-1.20035 -27.41571,1.05732 -1.0994,0.58838 -4.25193,1.06978 -7.00563,1.06978 -2.7537,0 -5.30681,0.48555 -5.67359,1.07901 -0.42599,0.68927 -2.43231,0.83619 -5.55462,0.40676 -4.14382,-0.56992 -4.99192,-0.40082 -5.57207,1.11103 -0.39873,1.03909 -0.19191,1.94739 0.49561,2.17656 0.64895,0.21632 1.17991,1.03081 1.17991,1.80997 0,0.77917 0.45,1.41667 1,1.41667 1.7361,0 1.08263,4.61524 -0.90862,6.41731 -1.04975,0.95 -2.4615,3.15725 -3.13722,4.90498 -0.67572,1.74774 -2.29184,5.51234 -3.59137,8.36578 -1.29954,2.85345 -2.36279,6.19015 -2.36279,7.4149 0,2.23305 -5.58836,17.40558 -7.19261,19.52811 -0.47019,0.62209 -1.52491,3.77209 -2.34382,7 -0.81891,3.22791 -1.87719,6.76892 -2.35174,7.86892 -2.5508,5.91279 -3.11183,7.90444 -3.11183,11.04705 0,1.89912 -0.4218,3.45295 -0.93734,3.45295 -0.51553,0 -2.36187,3.0375 -4.10296,6.75 -1.74109,3.7125 -3.764,7.89316 -4.49535,9.29035 -0.73135,1.39719 -1.99276,4.32219 -2.80312,6.5 -0.81036,2.17781 -3.5786,8.90965 -6.15163,14.95965 -2.57304,6.05 -4.9276,11.82503 -5.23236,12.83339 -0.30477,1.00837 -2.51682,5.47389 -4.91568,9.92339 -2.39886,4.4495 -4.36156,9.08187 -4.36156,10.29417 0,1.21229 -0.65198,2.74526 -1.44885,3.4066 -0.79686,0.66134 -1.9446,2.70458 -2.55052,4.54053 -0.60592,1.83596 -2.20394,4.06034 -3.55115,4.94307 -1.34721,0.88272 -2.44948,2.20387 -2.44948,2.93588 0,0.73201 -1.06766,2.48295 -2.37258,3.89098 -1.30492,1.40804 -2.69519,4.28625 -3.08949,6.39603 -0.3943,2.10978 -1.11744,4.32099 -1.60698,4.9138 -0.52356,0.63401 -0.4767,2.48704 0.11382,4.5 0.55214,1.88219 0.74477,5.0127 0.42807,6.95669 -0.46811,2.87332 -0.0876,4.08929 2.03417,6.5 1.4355,1.63101 3.21641,4.09047 3.95758,5.46547 1.52886,2.83632 16.09634,17 17.48466,17 0.49934,0 1.5134,0.5625 2.25347,1.25 4.3397,4.03144 11.77068,9.6878 14.74838,11.22628 1.89811,0.98069 4.06775,2.39972 4.82143,3.15339 0.75368,0.75368 1.70276,1.37033 2.10906,1.37033 0.4063,0 2.06166,1.28103 3.67857,2.84674 1.61691,1.5657 5.18984,4.08993 7.93984,5.60938 2.75,1.51946 6.85545,4.00971 9.12323,5.53388 2.26778,1.52417 5.75388,3.30938 7.7469,3.96714 1.99302,0.65775 4.19304,1.94898 4.88895,2.86939 0.6959,0.92041 2.3848,2.3172 3.7531,3.10398 1.3683,0.78678 5.18419,2.96138 8.47976,4.83245 3.29557,1.87107 6.22057,3.7261 6.5,4.12228 0.27943,0.39618 2.30806,1.79783 4.50806,3.11476 2.2,1.31693 4.23527,2.72933 4.52283,3.13866 0.43272,0.61597 6.00942,3.83476 6.67927,3.85518 0.11115,0.003 1.76117,-2.654 3.66671,-5.90532 z m 10.89207,-184.97324 c 0.16416,-4.11665 -3.61206,-11.09533 -6.01088,-11.10845 -1.51969,-0.008 -1.67539,-4.62589 -0.18699,-5.54577 2.45421,-1.51679 10.59066,9.93132 9.64057,13.56444 -0.28399,1.08597 -0.10847,2.03075 0.39004,2.0995 0.49851,0.0688 1.46888,0.20886 2.15638,0.31135 1.76237,0.26274 3.84376,-1.47563 3.13666,-2.61973 -0.32522,-0.52623 -1.37122,-1.26274 -2.32443,-1.6367 -1.60582,-0.62998 -1.56301,-1.06554 0.58283,-5.92992 1.69205,-3.8357 2.85998,-5.25 4.33544,-5.25 1.47445,0 2.0195,0.65881 2.0195,2.44098 0,1.34254 -0.38864,2.68118 -0.86364,2.97474 -1.42634,0.88153 -1.01839,8.96085 0.54205,10.735 0.79853,0.9079 1.08506,1.87514 0.63673,2.14942 -1.50176,0.91877 -5.80202,1.14632 -7.04447,0.37276 -0.67614,-0.42096 -2.10905,-0.29458 -3.18426,0.28086 -3.26747,1.74869 -3.98716,1.2147 -3.82553,-2.83848 z m 353.73912,186.88472 c 1.375,-1.07554 2.95,-1.96768 3.5,-1.98254 0.55,-0.0149 2.71254,-1.59987 4.80565,-3.52224 2.09311,-1.92237 4.20825,-3.49522 4.70031,-3.49522 0.49206,0 1.25452,-0.60931 1.69435,-1.35402 0.43983,-0.7447 1.81219,-1.88554 3.04969,-2.53518 1.2375,-0.64964 2.25,-1.84033 2.25,-2.64598 0,-0.80565 0.90225,-1.46482 2.00499,-1.46482 1.10275,0 5.26525,-2.82768 9.25,-6.28373 3.98476,-3.45606 8.82001,-7.37875 10.74501,-8.71709 1.925,-1.33835 3.99091,-2.90693 4.5909,-3.48574 0.6,-0.57881 4.875,-3.51863 9.5,-6.53291 7.63665,-4.97709 10.48319,-7.19702 17.38836,-13.56062 1.24141,-1.14405 4.90393,-4.16882 8.13893,-6.72172 3.23499,-2.55289 7.78705,-6.86694 10.11568,-9.58678 3.88195,-4.5341 4.22398,-5.38441 4.11482,-10.2297 -0.13514,-5.99804 -1.18876,-8.69947 -6.97432,-17.88171 -2.25255,-3.575 -5.15141,-8.79133 -6.44192,-11.59184 -1.29051,-2.80051 -3.04075,-5.66811 -3.88942,-6.37244 -0.84866,-0.70434 -1.54303,-1.97758 -1.54303,-2.82942 0,-0.85185 -0.667,-2.28584 -1.48222,-3.18665 -1.40419,-1.55162 -4.54658,-6.87957 -7.97378,-13.51965 -0.85163,-1.65 -3.27787,-5.27973 -5.39164,-8.06606 -2.11376,-2.78633 -4.12987,-6.20819 -4.48023,-7.60413 -0.35035,-1.39594 -2.66657,-6.09121 -5.14713,-10.43394 -2.48057,-4.34273 -4.51347,-8.44963 -4.51756,-9.12645 -0.004,-0.67682 -1.51069,-3.60182 -3.348,-6.5 -4.2109,-6.64231 -13.65944,-26.01305 -13.65944,-28.00365 0,-0.82283 -0.85085,-2.57773 -1.89077,-3.89977 -3.16501,-4.02366 -6.74063,-11.06928 -8.55943,-16.866 -0.94914,-3.025 -2.36112,-6.91801 -3.13775,-8.65113 -0.77663,-1.73312 -1.41205,-3.57648 -1.41205,-4.09636 0,-1.424 -2.98933,-7.25097 -6.02923,-11.75251 -2.52811,-3.74368 -7.97077,-14.7954 -7.97077,-16.18524 0,-0.34429 -1.125,-2.10093 -2.5,-3.90365 -1.375,-1.80272 -2.5,-3.71107 -2.5,-4.2408 0,-0.52972 -1.54812,-2.32239 -3.44027,-3.98372 l -3.44027,-3.0206 -14.30973,0.32694 c -21.35216,0.48783 -30.98307,1.46639 -33.30973,3.38446 -3.69247,3.04404 -8.5901,5.30201 -10.17833,4.69255 -1.26786,-0.48652 -1.44787,-1.56095 -0.92362,-5.5129 0.36915,-2.78284 0.24028,-5.16253 -0.29758,-5.49495 -0.5218,-0.32249 -5.0219,1.52379 -10.00022,4.10284 -8.58039,4.44512 -9.14877,4.60113 -10.92073,2.99753 -2.03906,-1.84532 -1.16041,-2.57144 -29.45015,24.33754 -13.05076,12.41379 -28.72937,32.08801 -28.72937,36.05092 0,1.2698 -0.78317,2.34112 -1.93083,2.64124 -1.06195,0.27771 -2.17283,1.13558 -2.46861,1.90638 -1.01117,2.63506 -3.60056,1.57586 -3.60056,-1.47281 0,-2.64613 -0.93707,-5.86958 -3.93651,-13.54136 l -1.13993,-2.91562 -3.71178,3.47625 c -2.04148,1.91194 -5.34495,4.66793 -7.34104,6.12443 l -3.62927,2.64817 1.78375,5.2912 c 1.93863,5.75063 4.72926,11.88008 8.44799,18.55547 1.30655,2.34535 3.1111,6.62035 4.01012,9.5 0.89903,2.87965 2.32083,6.49411 3.15957,8.03212 1.20246,2.20497 1.26984,3.10383 0.3186,4.25 -1.02998,1.24105 -0.34766,1.47665 4.66606,1.61114 3.22984,0.0866 6.54744,0.10859 7.37244,0.0488 12.20628,-0.88514 52.36222,-1.00179 58.13104,-0.16886 9.83568,1.42011 73.47948,1.02829 86.86896,-0.53481 1.925,-0.22473 9.125,-0.71363 16,-1.08644 8.94978,-0.48532 12.72713,-1.06671 13.29969,-2.04701 1.04897,-1.79598 5.38,-1.76151 6.40062,0.0509 0.43983,0.78106 2.3358,1.56856 4.21326,1.75 2.99506,0.28944 3.60088,0.84581 4.94139,4.53801 1.16997,3.22251 1.26986,4.74493 0.42649,6.5 -0.60574,1.26053 -2.1285,4.54187 -3.38393,7.29187 -1.25543,2.75 -3.67198,7.25 -5.37012,10 -3.36467,5.44882 -3.56666,5.8509 -9.48935,18.88985 -2.22093,4.88941 -4.03805,9.52253 -4.03805,10.2958 0,0.77328 -1.1295,3.52285 -2.51,6.11016 l -2.51001,4.70419 3.76001,0.70323 c 15.12466,2.82876 16.98172,3.67505 14.19013,6.46664 -0.75982,0.75982 -3.25296,0.39631 -8.60308,-1.25439 -8.12697,-2.50745 -12.77385,-2.31767 -14.32738,0.58514 -0.51112,0.95503 -0.7164,1.94931 -0.4562,2.20952 0.26021,0.26021 -1.12824,4.70688 -3.08545,9.88148 -1.95721,5.17461 -3.73035,10.08338 -3.94031,10.90838 -1.152,4.5267 -4.81749,14.63275 -5.60374,15.45 -0.50268,0.5225 -0.91397,1.81683 -0.91397,2.8763 0,1.05946 -1.33946,4.56217 -2.97657,7.7838 -5.07641,9.98971 -10.07947,26.29771 -9.49496,30.94979 0.5163,4.10924 5.97139,16.15443 7.59645,16.77344 0.48129,0.18334 0.87508,0.88084 0.87508,1.55 0,1.24498 1.96104,3.63442 2.95,3.59443 0.3025,-0.0122 1.675,-0.90222 3.05,-1.97776 z m 13.90488,-94.61462 c -1.14981,-1.38543 -1.00078,-1.88931 1.04991,-3.54986 2.36465,-1.91478 2.41073,-1.91444 4.35652,0.0313 1.12835,1.12835 1.70761,2.64144 1.35902,3.54986 -0.78999,2.05868 -5.04726,2.03896 -6.76545,-0.0313 z M 550.09389,434.40252 c -0.43924,-1.38391 -0.0734,-2.79588 1.04453,-4.03116 1.22445,-1.35299 1.54036,-2.80222 1.0956,-5.02601 -0.88115,-4.40576 0.20046,-7.92946 2.43397,-7.92946 1.83257,0 2.87727,2.48566 4.54104,10.80448 0.38716,1.93581 1.24684,3.19552 2.18077,3.19552 0.84791,0 1.29647,-0.24519 0.99679,-0.54487 -0.92992,-0.92992 5.25957,-6.45513 7.2312,-6.45513 1.58263,0 1.85982,0.77493 1.82627,5.10564 -0.0386,4.9836 -0.10297,5.09301 -2.69274,4.57726 -1.51519,-0.30174 -3.48577,0.0819 -4.59432,0.89437 -3.48701,2.55577 -5.37865,1.76141 -6.73265,-2.82727 -0.68974,-2.3375 -1.90526,-4.9171 -2.70116,-5.73244 -1.26799,-1.29897 -1.35637,-1.11333 -0.71412,1.5 1.47913,6.01859 1.22703,7.96279 -1.07505,8.29074 -1.48948,0.21218 -2.37485,-0.35569 -2.84013,-1.82167 z m -306.5312,80.26337 c -0.0704,-1.48953 -2.89457,-5.71588 -2.92912,-4.38337 -0.0223,0.86026 -0.76287,1.17641 -1.99867,0.85324 -1.07978,-0.28237 -2.46634,0.0928 -3.08125,0.83372 -0.88481,1.06613 -0.42316,1.54725 2.21324,2.30658 4.2496,1.22396 5.84027,1.33095 5.7958,0.38983 z m 203.94028,-85.75 c 2.31912,-2.73771 9.1161,-13.23814 11.30287,-17.46144 1.94576,-3.75783 2.25118,-6.76603 0.90298,-8.89371 -0.67386,-1.06345 -1.22247,-0.8482 -2.5487,1 -4.07337,5.67653 -20.56199,32.35314 -20.56199,33.26683 0,0.25051 1.2375,0.59787 2.75,0.7719 2.26836,0.261 3.07495,-0.29658 4.60532,-3.18358 1.02043,-1.925 2.61771,-4.4 3.54952,-5.5 z m 26.04761,8.05245 c -0.52385,-0.52385 -0.95245,-1.94492 -0.95245,-3.15795 0,-1.21302 -0.83449,-3.93552 -1.85443,-6.05 -1.01994,-2.11447 -3.20881,-6.7684 -4.86416,-10.34204 l -3.00972,-6.49755 -2.11195,3.49755 c -2.33332,3.86413 -3.35964,5.40256 -7.40974,11.10696 -1.5125,2.13029 -2.75,4.1218 -2.75,4.42557 0,0.30376 -1.125,1.76556 -2.5,3.24844 -4.50231,4.85554 -3.7966,5.14631 11.95245,4.92478 9.15401,-0.12877 14.10328,-0.55248 13.5,-1.15576 z m -40.11769,-1.05245 c 0.51388,-0.55 2.01974,-3.025 3.34638,-5.5 1.32663,-2.475 4.92931,-8.357 8.00596,-13.07112 9.00281,-13.79435 12.21489,-19.92689 11.0483,-21.09348 -0.70793,-0.70793 -1.74854,-0.0603 -3.32123,2.06683 -2.68469,3.63123 -4.45131,3.89094 -6.79333,0.99867 -1.22489,-1.51267 -3.15544,-2.21281 -6.9103,-2.5061 -2.8658,-0.22384 -5.21054,-0.007 -5.21054,0.48146 0,0.48864 -1.6875,2.64911 -3.75,4.80103 -2.0625,2.15193 -5.1,6.30085 -6.75,9.21983 -1.65,2.91898 -4.4625,7.55648 -6.25,10.30555 -1.7875,2.74907 -3.25,5.38073 -3.25,5.84813 0,0.4674 -0.59644,1.20968 -1.32541,1.64951 -0.72898,0.43983 -1.61485,1.58719 -1.96862,2.54969 -0.62945,1.71258 -2.71001,2.48263 -2.70183,1 0.002,-0.4125 1.56014,-3.225 3.46194,-6.25 1.90179,-3.025 4.16385,-7.05078 5.0268,-8.94617 0.86295,-1.8954 2.59241,-4.8204 3.84325,-6.5 3.1269,-4.19874 7.66387,-12.17996 7.66387,-13.4819 0,-0.58956 -0.64224,-1.07193 -1.4272,-1.07193 -1.51573,0 -7.56091,6.75224 -7.59008,8.47784 -0.009,0.56219 -1.02981,1.98113 -2.26736,3.15321 -1.23755,1.17208 -2.9101,3.42208 -3.71679,5 -0.80669,1.57792 -2.85172,4.93388 -4.54452,7.45769 -1.6928,2.5238 -3.64963,6.1238 -4.34852,8 -1.96255,5.26857 -2.71127,6.41126 -4.20082,6.41126 -2.16252,0 -2.23432,-3.22983 -0.12219,-5.49693 1.05456,-1.13195 2.44689,-3.82542 3.09407,-5.98551 0.64718,-2.16008 2.22639,-5.18521 3.50936,-6.72249 1.28296,-1.53729 3.0249,-4.14613 3.87098,-5.79743 0.84607,-1.6513 2.48438,-3.85854 3.64069,-4.90499 2.60253,-2.35526 2.67997,-3.59265 0.22482,-3.59265 -1.03265,0 -2.43775,-0.675 -3.12244,-1.5 -2.01495,-2.42787 -3.50983,-1.74702 -4.94015,2.25 -0.73807,2.0625 -2.56976,6.45 -4.07042,9.75 -1.50067,3.3 -3.03841,7.575 -3.4172,9.5 -0.37879,1.925 -1.05647,4.4 -1.50596,5.5 -2.69799,6.60262 -3.04619,7.72347 -2.61572,8.41998 0.71693,1.16002 38.28228,0.75943 39.38421,-0.41998 z m -14.11052,-38.17131 c 0.24807,-0.74511 -0.35856,-0.97557 -1.66714,-0.63337 -1.1314,0.29587 -2.0571,0.96845 -2.0571,1.49464 0,1.32759 3.24537,0.57706 3.72424,-0.86127 z m -5.69962,-2.57869 c 0.0135,-1.2375 2.00899,-5.4 4.43432,-9.25 2.42533,-3.85 5.9896,-9.56956 7.92061,-12.71014 1.93101,-3.14057 5.22307,-7.95144 7.31569,-10.69081 2.09262,-2.73938 5.37976,-7.12349 7.30476,-9.74248 1.925,-2.61899 5.6375,-7.21564 8.25,-10.21478 2.6125,-2.99913 4.75,-6.00917 4.75,-6.68897 0,-1.78139 -4.14867,-2.56727 -12.86985,-2.43791 -4.19658,0.0622 -8.64484,-0.11523 -9.88503,-0.39439 -1.97199,-0.44389 -2.17793,-0.20101 -1.64159,1.93596 0.49031,1.95353 0.22968,2.44352 -1.2997,2.44352 -2.92844,0 -12.77869,10.24302 -19.79998,20.58947 -1.44325,2.12674 -2.93454,4.10165 -3.31397,4.38867 -0.37943,0.28702 -1.77619,2.54686 -3.1039,5.02186 -1.32771,2.475 -3.76636,6.41231 -5.41921,8.74957 -2.67881,3.78804 -2.86625,4.50918 -1.72591,6.63993 0.70361,1.3147 2.30899,2.94144 3.56751,3.61498 1.25853,0.67354 2.69125,2.12784 3.18384,3.23176 0.78584,1.76114 9.53869,7.60897 11.55779,7.72184 0.4125,0.0231 0.76108,-0.97058 0.77462,-2.20808 z m 38.25858,-4.10771 c 0.86746,-5.34554 11.13981,-20.54519 14.73111,-21.79712 3.47988,-1.2131 3.57171,-1.57464 1.23569,-4.86538 -0.9625,-1.35587 -2.95504,-5.15767 -4.42787,-8.44846 -1.47282,-3.29078 -3.07611,-6.11599 -3.56286,-6.27824 -0.48675,-0.16225 -3.4129,2.97693 -6.50257,6.97596 -10.2693,13.29177 -15.7567,20.69229 -15.7567,21.25008 0,0.3034 -1.53281,2.90722 -3.40624,5.78625 -6.01954,9.25065 -5.98702,9.32711 4.08433,9.60469 4.78255,0.13181 9.38938,0.62793 10.23738,1.1025 2.13356,1.194 2.72911,0.60507 3.36773,-3.33028 z m -28.0332,1.63185 c 2.06467,-0.2666 3.75,-1.04341 3.75,-1.72847 0,-2.45895 7.45472,-15.22743 14.33067,-24.54567 3.85555,-5.225 8.12687,-11.075 9.49184,-13 1.36497,-1.925 3.53352,-4.52627 4.81899,-5.7806 1.98945,-1.94126 2.15422,-2.57365 1.10731,-4.25 -0.67644,-1.08317 -1.51008,-1.9694 -1.85251,-1.9694 -0.76614,0 -8.58605,8.41286 -11.62111,12.5023 -1.22364,1.64873 -4.01816,5.3242 -6.21002,8.16771 -2.19187,2.84351 -5.44837,7.56851 -7.23666,10.5 -1.78829,2.93149 -4.72812,6.90499 -6.53296,8.82999 -1.80484,1.925 -3.97172,4.94338 -4.8153,6.70752 -0.84357,1.76414 -1.97173,3.4782 -2.50701,3.80902 -1.8407,1.13761 -0.97053,2.36795 1.27676,1.80521 1.2375,-0.30987 3.9375,-0.7813 6,-1.04761 z m 36.19625,-3.9695 c 6.02031,-4.00294 10.55375,-8.47342 10.55375,-10.40719 0,-1.24298 0.57156,-1.56074 2.09211,-1.16311 l 2.09212,0.5471 -2.11244,-4.14072 c -1.90637,-3.7368 -4.07179,-5.48472 -4.07179,-3.28674 0,0.46968 -1.0125,1.97219 -2.25,3.3389 -5.42395,5.99025 -12.72722,17.80712 -11.00548,17.80712 0.35639,0 2.47217,-1.21291 4.70173,-2.69536 z m 29.23432,-4.6871 c 2.01104,-2.81465 4.17889,-5.56754 4.81743,-6.11754 0.63854,-0.55 3.64728,-4.22432 6.68609,-8.16516 5.16892,-6.70324 14.16135,-15.70962 28.31591,-28.35983 3.3,-2.94927 6.74895,-6.57265 7.66432,-8.05195 0.91538,-1.4793 2.66165,-3.38819 3.8806,-4.24197 l 2.21628,-1.55234 -2.8806,-2.53278 c -1.58433,-1.39302 -3.20654,-2.54699 -3.60492,-2.56437 -0.39838,-0.0174 -1.45996,-1.45418 -2.35908,-3.19289 -0.89913,-1.73871 -2.71068,-4.32161 -4.02569,-5.73978 -1.315,-1.41817 -2.39091,-2.84836 -2.39091,-3.1782 0,-0.32983 -1.19657,-1.14489 -2.65904,-1.81124 -2.51337,-1.14517 -2.89803,-0.93833 -7.02174,3.7757 -2.3995,2.74298 -5.14043,4.94887 -6.09097,4.90197 -2.91135,-0.14364 -12.98743,3.21774 -14.26693,4.75945 -0.66342,0.79936 -1.98185,1.45339 -2.92986,1.45339 -1.47313,0 -11.33711,3.33531 -20.06389,6.78422 -1.39284,0.55046 -5.43882,1.29268 -8.99106,1.64936 -3.55224,0.35669 -6.84543,1.03534 -7.31821,1.50812 -0.47947,0.47947 -0.27554,2.47482 0.46116,4.51212 1.11337,3.07897 1.67877,3.56265 3.60065,3.08029 2.57408,-0.64605 2.80797,0.21277 1.08675,3.99045 -0.79697,1.74915 -0.85479,2.84392 -0.17413,3.29705 1.56136,1.03943 17.15032,34.10059 18.39033,39.00232 1.285,5.07958 1.93032,4.80937 7.65751,-3.20639 z M 378.97476,369.41589 c 5.88868,-12.61103 13.8679,-25.72718 19.46721,-32 1.71832,-1.925 3.1314,-3.80021 3.14019,-4.16714 0.0171,-0.71584 -8.88388,-2.83286 -11.91081,-2.83286 -1.00558,0 -2.35572,-0.63546 -3.0003,-1.41214 -0.64459,-0.77668 -3.39969,-1.94656 -6.12245,-2.59974 -2.72276,-0.65318 -4.95047,-1.52395 -4.95047,-1.93505 0,-0.41109 -0.84874,-1.15371 -1.88609,-1.65026 -2.56883,-1.22962 -7.12897,-4.81103 -14.83731,-11.65281 -3.56304,-3.1625 -6.85999,-5.75 -7.32654,-5.75 -0.46655,0 -2.0608,-1.58971 -3.54278,-3.53268 l -2.69451,-3.53268 2.31793,-2.46732 c 1.27486,-1.35703 2.05129,-2.46732 1.7254,-2.46732 -0.32589,0 -1.30433,-0.27314 -2.17431,-0.60699 -1.07959,-0.41427 -1.58179,-0.0383 -1.58179,1.18428 0,3.63174 -5.21763,12.88373 -12.11112,21.47563 -5.15321,6.42287 -4.69901,8.77723 3.25324,16.86335 3.56111,3.62105 8.47344,9.03761 10.91631,12.0368 2.44286,2.99919 5.90282,7.04919 7.68879,9 2.6468,2.89109 10.28307,17.00124 15.62962,28.88009 1.00564,2.2343 1.14296,2.12837 3.24086,-2.5 1.20489,-2.65824 3.34641,-7.30816 4.75893,-10.33316 z m 14.67322,5.75 c 2.65077,-5.9622 13.59276,-22.56634 16.96903,-25.75 0.29164,-0.275 2.41086,-2.89512 4.70939,-5.82248 2.29853,-2.92737 5.83685,-6.63987 7.86294,-8.25 2.50217,-1.98848 3.13615,-2.92752 1.97647,-2.92752 -2.26357,0 -10.23593,5.51257 -14.39058,9.95052 -6.97346,7.44895 -19.1771,28.06438 -19.1771,32.39558 0,3.24636 0.72278,3.38878 2.04985,0.4039 z m 8.45054,-27.25 c 3.48753,-4.51828 10.84278,-12.02624 13.04857,-13.31951 1.52386,-0.89344 1.6632,-1.33379 0.63639,-2.01116 -1.71735,-1.13293 -5.8142,-0.32147 -7.27726,1.44141 -0.63414,0.76409 -1.88538,1.40681 -2.78053,1.42826 -1.40887,0.0338 -6.51762,5.78696 -9.62505,10.83922 -0.54862,0.89198 -2.05349,3.10981 -3.34417,4.92852 -1.67278,2.35715 -2.1621,4.04213 -1.70394,5.86759 0.40273,1.60462 0.11179,3.17041 -0.77917,4.19326 -1.63008,1.8714 -3.03363,8.44068 -2.01996,9.45435 0.37341,0.3734 3.12031,-3.93377 6.10422,-9.57151 2.98391,-5.63774 6.46732,-11.60043 7.7409,-13.25043 z m 49.81353,-20.67784 c 1.22787,-0.65048 2.27436,-0.57882 3.23904,0.22179 0.93771,0.77823 2.71141,0.92205 5.18608,0.4205 2.06853,-0.41924 4.43596,-0.85197 5.26096,-0.96164 1.76333,-0.2344 9.62767,-2.40554 12.5,-3.45093 1.1,-0.40035 5.14897,-1.74953 8.99772,-2.99819 3.84874,-1.24865 8.12374,-3.0656 9.5,-4.03765 2.17247,-1.53442 7.369,-3.28613 10.50228,-3.54023 2.3209,-0.18823 7.60659,-3.70885 9.18503,-6.11785 1.62012,-2.47263 1.61119,-2.66819 -0.18171,-3.97919 -1.03707,-0.75833 -2.92457,-1.37877 -4.19445,-1.37877 -2.02125,0 -2.30887,0.49093 -2.30887,3.94098 0,4.07741 -1.4362,6.02282 -3.1679,4.29112 -0.8042,-0.8042 -2.35094,-98.89095 -1.85654,-117.7321 0.12035,-4.58626 1.85762,-6.88498 4.4512,-5.88973 1.46603,0.56257 1.66696,1.40217 1.13368,4.73713 -0.35649,2.22935 -1.02953,4.5257 -1.49564,5.10299 -0.92704,1.14814 -0.19539,11.54952 0.81243,11.54976 0.34252,9e-5 0.59189,4.52838 0.55414,10.06289 l -0.0686,10.06273 2.56303,-0.64328 c 4.52828,-1.13652 5.34345,-2.4243 3.40155,-5.37363 -2.41656,-3.67024 -5.18268,-17.81635 -4.27273,-21.85097 0.42284,-1.87479 0.32615,-3.52258 -0.22676,-3.86429 -0.53016,-0.32766 0.64169,-2.02419 2.60411,-3.77007 1.96243,-1.74589 3.56805,-3.9504 3.56805,-4.89893 0,-0.94853 0.41968,-1.7246 0.93261,-1.7246 1.74125,0 2.17884,-3.89598 0.91236,-8.1231 -1.1433,-3.81599 -1.08729,-4.31307 0.59651,-5.29416 4.70638,-2.74223 13.5563,-10.82895 13.53656,-12.3692 -0.0391,-3.05262 -4.02369,-10.65726 -6.71173,-12.80952 l -2.61776,-2.09599 -5.68835,1.94229 c -6.37073,2.17528 -12.59038,7.00464 -9.73048,7.5554 0.91601,0.17641 2.53241,-0.14323 3.59201,-0.71031 2.65728,-1.42214 5.09811,1.41811 4.64455,5.40459 -0.65443,5.75207 -1.61122,9.75922 -2.77524,11.62311 -1.49603,2.39553 -4.00498,2.49155 -3.31571,0.12689 0.28056,-0.9625 0.79515,-4.14357 1.14353,-7.06904 l 0.63343,-5.31904 -3.32614,0.31904 -3.32617,0.31904 0.29758,6 c 0.3783,7.62735 -0.5025,12.5 -2.25956,12.5 -1.7451,0 -2.49908,-2.04764 -1.48454,-4.03169 0.43077,-0.84243 0.45941,-3.09243 0.0636,-5 -0.5728,-2.76085 -1.14297,-3.40875 -2.79524,-3.17631 -1.16066,0.16328 -2.33651,-0.38775 -2.66739,-1.25 -0.32545,-0.8481 -1.75123,-1.542 -3.16842,-1.542 -2.45224,0 -2.53828,0.18113 -1.78138,3.75 1.26555,5.96726 0.77915,13.46901 -1.10809,17.08975 -2.20029,4.22134 -12.79824,9.23521 -23.45279,11.09546 -7.23669,1.26351 -7.44432,1.23979 -12.7815,-1.46058 -2.98392,-1.50973 -5.68974,-2.48053 -6.01293,-2.15734 -0.3232,0.32319 3.95861,5.04883 9.51512,10.50142 7.19691,7.06231 12.68903,11.40643 19.09454,15.10327 9.48861,5.4762 10.84817,6.67081 9.32515,8.19383 -0.58873,0.58873 -1.84887,0.27504 -3.36287,-0.83713 -1.33173,-0.97827 -3.99632,-2.64479 -5.92132,-3.70337 -1.925,-1.05858 -3.725,-2.23329 -4,-2.61046 -0.275,-0.37718 -1.98685,-1.44772 -3.80411,-2.37898 -3.58887,-1.83912 -6.06136,-3.77067 -13.34488,-10.42523 l -4.74949,-4.33937 -1.42776,3.4171 c -0.9009,2.15616 -2.48791,3.80387 -4.30075,4.46527 -6.07089,2.21489 -14.18305,3.64651 -21.87301,3.86009 -7.45073,0.20694 -8.48061,-0.0263 -15,-3.39712 -3.85,-1.99062 -7.15,-3.96746 -7.33333,-4.39296 -0.1833,-0.42551 -0.99735,-0.77365 -1.80898,-0.77365 -0.81163,0 -1.25382,-0.35899 -0.98265,-0.79775 0.27117,-0.43876 0.14846,-1.35528 -0.27269,-2.03671 -0.54129,-0.87582 -2.06714,0.0175 -5.20579,3.04775 -10.28046,9.92538 -21.46668,19.78671 -22.4451,19.78671 -0.57828,0 -1.59142,0.54 -2.25142,1.2 -0.66,0.66 -1.2,0.91704 -1.2,0.5712 0,-0.56968 5.40859,-6.81593 8.02787,-9.2712 16.37633,-15.35086 24.33664,-24.5 21.31652,-24.5 -0.36058,0 -2.15359,1.14257 -3.98446,2.53904 -1.83087,1.39647 -4.57334,2.55158 -6.09439,2.56691 -4.29187,0.0433 -13.70857,-1.30851 -14.26554,-2.04783 -0.275,-0.36503 -2.19841,-1.69588 -4.27424,-2.95745 -5.27589,-3.20636 -6.91218,-6.9298 -7.03131,-15.99992 -0.11714,-8.919 -0.7827,-9.52823 -7.91683,-7.24682 -3.8052,1.21685 -4.67484,1.89455 -4.22992,3.29637 0.42764,1.34737 -0.20339,1.96242 -2.66886,2.60129 -1.7759,0.46018 -4.09605,1.99814 -5.15589,3.41768 -1.60462,2.14921 -1.72713,2.9544 -0.73233,4.81321 1.39138,2.59981 0.0536,4.6322 -2.4234,3.68169 -1.09017,-0.41834 -1.56722,-1.92378 -1.56722,-4.94569 0,-3.52162 0.56811,-4.88858 3,-7.21848 3.34777,-3.20737 3.77632,-4.98812 1.41821,-5.89301 -6.1328,-2.35338 -13.40266,4.00856 -9.28543,8.12579 1.23884,1.23884 0.50788,4.26722 -1.02997,4.26722 -2.38273,0 -4.22798,-3.41093 -3.99673,-7.38794 0.35732,-6.14536 1.34791,-7.40763 6.40882,-8.16656 5.1209,-0.76793 5.92472,-1.55778 5.06625,-4.97818 -0.98121,-3.90948 -13.78571,-7.15152 -17.2011,-4.35524 -2.05237,1.68035 -5.56224,13.78193 -4.88781,16.85259 0.77345,3.52148 1.94808,4.55308 10.28814,9.03533 3.58183,1.925 6.84943,4.175 7.26135,5 0.41192,0.825 1.21253,4.57754 1.77914,8.33897 1.52428,10.11901 4.28536,12.31479 11.62762,9.247 3.20009,-1.33709 3.35538,-1.62933 2.8536,-5.37036 -0.60459,-4.50756 0.51442,-5.72946 4.36251,-4.76365 2.18913,0.54943 2.45559,1.02373 1.87872,3.34414 -0.36971,1.48714 -0.71642,3.3789 -0.77047,4.2039 -0.15231,2.32503 1.28869,41.87099 2.09523,57.5 0.39736,7.7 0.62049,20.88622 0.49584,29.30272 -0.2266,15.30089 -0.22634,15.30284 2.1855,16.40175 1.32668,0.60448 2.66483,1.81825 2.97368,2.69729 1.34258,3.82118 19.37816,15.34343 25.6761,16.40348 1.26544,0.21299 2.9758,0.66967 3.8008,1.01483 4.05229,1.6954 12.33642,2.73246 26.22582,3.28312 8.4008,0.33306 15.47742,0.79934 15.72583,1.03617 0.77026,0.73437 15.44509,-0.80156 17.36227,-1.8172 z m -31.31392,-63.35354 c 0,-1.51871 0.70009,-2.76817 1.75,-3.12326 0.9625,-0.32553 4.9,-2.08171 8.75,-3.90262 3.85,-1.82091 10.15,-4.41737 14,-5.76991 11.98336,-4.20986 20.85295,-7.47599 24.65081,-9.07739 3.12383,-1.31719 3.8188,-1.33698 4.81457,-0.13716 1.342,1.61702 0.0786,2.49761 -6.46538,4.50632 -10.91092,3.34917 -37.35169,14.62249 -40.2848,17.17586 -4.20729,3.66261 -7.2152,3.79941 -7.2152,0.32816 z m -94,59.53138 c 0,-0.55 -0.45,-1 -1,-1 -0.55,0 -1,0.45 -1,1 0,0.55 0.45,1 1,1 0.55,0 1,-0.45 1,-1 z m 28.35939,-29.50583 c -0.33608,-0.8758 -1.33675,-1.4526 -2.22373,-1.28178 -2.17821,0.41949 -2.72164,3.88018 -0.77993,4.96681 0.85866,0.48053 1.34829,1.64929 1.08806,2.59725 -0.26023,0.94795 0.20181,0.28052 1.02675,-1.48319 0.82494,-1.76371 1.22492,-3.9233 0.88885,-4.79909 z m -3.01431,-61.0373 c -0.32569,-0.84872 -0.80663,-1.32866 -1.06875,-1.06653 -0.26213,0.26213 -0.17998,0.95654 0.18255,1.54313 0.98605,1.59546 1.56238,1.28551 0.8862,-0.4766 z m 0.2996,-7.70687 c -0.31785,-1.7875 -0.88,-6.7375 -1.24923,-11 -0.75707,-8.74001 -1.9914,-9.75787 -5.31389,-4.38197 -2.41769,3.91191 -2.55989,6.43039 -0.71204,12.61152 0.97885,3.27429 1.98372,4.66002 3.73482,5.15032 3.96698,1.11073 4.14031,0.99422 3.54034,-2.37987 z m 84.68734,-19.54583 c 4.30761,-1.08251 8.22207,-2.3588 8.69881,-2.83619 0.47674,-0.47739 1.15852,-2.69403 1.51507,-4.92587 0.90892,-5.68939 -2.62949,-9.92764 -9.09821,-10.89768 -4.86495,-0.72955 -5.87484,-3.27698 -1.0928,-2.75658 3.01669,0.32828 3.0638,0.22518 1.48267,-3.24502 -1.91169,-4.1957 -0.29736,-3.94966 4.31595,0.6578 4.52695,4.5212 9.93111,7.578 15.69585,8.87816 3.76685,0.84957 16.32024,-1.93121 21.94777,-4.86179 3.55139,-1.8494 6.63369,-5.7109 5.72812,-7.17615 -0.30683,-0.49646 -0.11157,-1.17848 0.43391,-1.51561 1.54271,-0.95345 0.44945,-16.44956 -1.51862,-21.52524 -2.03433,-5.24655 -4.97199,-8.83543 -7.29881,-8.9168 -6.49221,-0.22703 -15.00391,-1.38546 -16.85305,-2.29367 -3.02244,-1.48447 -15.83761,-0.3151 -18.95878,1.72997 -1.98748,1.30225 -2.41162,2.31057 -2.16687,5.15141 0.23446,2.72137 -0.23236,3.96681 -2.03352,5.4253 -2.82312,2.28603 -3.57906,1.90308 -6.13563,-3.10821 -1.5659,-3.0694 -2.43731,-3.78777 -4.18619,-3.45096 -4.25923,0.82025 -8.92731,3.63139 -10.02283,6.0358 -0.60824,1.33494 -1.43358,2.42716 -1.83408,2.42716 -0.40051,0 -1.02909,1.6039 -1.39685,3.56421 -0.95314,5.08067 -2.9998,3.76198 -3.32507,-2.14238 -0.14913,-2.70701 -0.82142,-5.99738 -1.49397,-7.31194 -3.31556,-6.48055 -21.51614,-8.63734 -31.80668,-3.76914 -6.93589,3.2812 -9.14352,6.28364 -11.39396,15.49611 -3.68915,15.10202 0.13834,23.76982 11.93442,27.02688 5.09523,1.40686 9.28879,0.4756 13.83175,-3.07161 3.83933,-2.9978 6.69958,-3.13592 6.69958,-0.32351 0,2.59558 2.44008,1.69335 3.81385,-1.4102 1.35008,-3.05005 6.51074,-5.56227 9.92806,-4.833 1.36661,0.29164 1.05721,0.74758 -1.3895,2.0476 -3.01643,1.60273 -7.35241,8.56785 -7.35241,11.81057 0,0.79868 1.06523,3.0191 2.36717,4.93428 1.7567,2.58413 3.75533,3.93066 7.75,5.22138 9.49762,3.06878 10.87199,3.0667 23.21485,-0.0351 z m -25.35009,-29.72594 c -1.30189,-1.56869 -0.97225,-2.16359 3.3846,-6.10809 5.65028,-5.11554 8.09293,-5.43465 17.4393,-2.27834 4.69735,1.58633 6.19417,2.55292 6.19417,4 0,2.39455 -0.72342,2.38433 -6.5,-0.0918 -2.5662,-1.1 -6.06316,-2 -7.77103,-2 -3.46066,0 -9.18707,3.47049 -10.46981,6.34522 -0.78986,1.77014 -0.91258,1.77731 -2.27723,0.13301 z m -11.39353,17.77683 c -1.07549,-1.07549 -1.64645,0.43075 -0.89148,2.35181 0.7082,1.80207 0.76169,1.80519 1.11193,0.0649 0.20237,-1.00555 0.10317,-2.09305 -0.22045,-2.41667 z m -56.5884,-29.25506 c 0,-0.55 -0.19844,-1 -0.44098,-1 -0.24254,0 -0.7191,0.45 -1.05902,1 -0.33992,0.55 -0.14148,1 0.44098,1 0.58246,0 1.05902,-0.45 1.05902,-1 z m 14.32883,-0.63857 c 2.80627,-0.47341 4.07485,-1.29298 4.75,-3.06877 1.22763,-3.2289 1.20916,-3.29266 -0.95383,-3.29266 -1.26586,0 -2.06208,-0.9354 -2.45086,-2.87929 -0.75306,-3.76532 -5.55579,-4.75079 -10.67414,-2.19022 -2.79061,1.39606 -3.56605,2.42529 -3.82587,5.07802 -0.22006,2.2467 0.18584,3.61344 1.25,4.20897 0.86673,0.48504 1.57587,1.58561 1.57587,2.44571 0,1.22272 0.70887,1.4308 3.25,0.95398 1.7875,-0.3354 4.97297,-0.90048 7.07883,-1.25574 z m 141.78293,-8.301 c 1.55055,-3.29694 1.52726,-3.53702 -0.56162,-5.78978 -2.55964,-2.76046 -4.38893,-2.33255 -7.39185,1.72912 -1.73751,2.35012 -1.95691,3.3997 -1.15276,5.51479 0.83191,2.18808 1.52053,2.56136 4.24089,2.29885 2.58043,-0.24902 3.58006,-1.0201 4.86534,-3.75298 z m 5.82088,-2.1863 c -1.5198,-2.83977 -2.43264,-2.25642 -2.43264,1.55461 0,3.17766 0.12579,3.3149 1.71782,1.87413 1.29743,-1.17415 1.47236,-2.01325 0.71482,-3.42874 z M 341.4953,151.69321 c 1.70656,-1.49748 3.10283,-3.29748 3.10283,-4 0,-1.09387 3.58103,-1.85963 6.35829,-1.35965 2.09757,0.37763 7.4409,-5.17033 9.98633,-10.36877 3.68093,-7.51745 4.85563,-18.95077 2.1503,-20.92895 -0.99026,-0.7241 -1.49295,-1.81411 -1.1171,-2.42226 1.11766,-1.80841 -0.45052,-6.38377 -1.98604,-5.79453 -1.98289,0.7609 -1.30085,-5.42716 0.74007,-6.71453 3.02462,-1.907895 4.86815,-0.0978 4.86815,4.77999 0,2.49226 0.35134,4.53138 0.78076,4.53138 0.42942,0 1.27531,1.31019 1.87975,2.91154 1.29044,3.41876 7.21105,7.42781 13.43064,9.09434 2.42487,0.64974 5.19024,1.58922 6.14528,2.08773 1.79984,0.93949 4.76357,1.23283 4.76357,0.47149 0,-0.2392 -0.50823,-1.7017 -1.1294,-3.25 -0.62117,-1.54831 -1.30859,-5.73002 -1.52759,-9.29269 -0.21901,-3.56268 -0.83578,-6.91518 -1.3706,-7.45 -1.76862,-1.76862 -1.09294,-5.307635 1.12404,-5.887385 3.16663,-0.82809 4.9423,0.25874 5.57273,3.410895 1.38187,6.90934 21.01705,15.94911 40.18953,18.50272 1.8473,0.24605 4.18021,0.88701 5.18426,1.42436 3.62574,1.94043 4.0685,0.20547 0.95703,-3.75013 -2.35376,-2.99231 -2.60413,-8.09188 -0.5318,-10.83174 0.8075,-1.06762 1.4825,-2.74313 1.5,-3.72335 0.0358,-2.0059 3.53557,-3.660315 6.2445,-2.95191 1.08573,0.28393 1.7873,1.40294 1.7873,2.85076 0,1.31085 0.83237,3.17087 1.84972,4.13337 4.86517,4.6029 6.68596,5.48823 12.342,6.0011 5.2543,0.47644 6.0872,0.2957 7.42252,-1.61074 1.1796,-1.68411 1.90464,-1.93303 3.36068,-1.15378 2.54367,1.36133 11.7677,-0.45396 15.23459,-2.99818 5.92725,-4.34978 9.22025,-1.21567 5.79066,5.51126 -1.52797,2.99704 -2.00017,5.89728 -2.00017,12.28511 0,7.43039 -0.19494,8.32288 -1.75,8.0118 -1.53911,-0.30789 -1.73642,-1.58492 -1.63734,-10.59712 0.0987,-8.97788 -0.0871,-10.19142 -1.5,-9.7979 -0.88696,0.24702 -3.18766,0.75969 -5.11266,1.13927 -1.925,0.37957 -4.12453,1.19474 -4.88784,1.81149 -1.54831,1.25103 -14.57821,1.44754 -20.33001,0.3066 -2.04482,-0.40561 -4.32156,-1.2823 -5.05941,-1.94819 -0.73785,-0.6659 -3.03378,-2.78572 -5.10207,-4.71072 -3.63888,-3.38679 -3.80677,-3.43721 -5.19059,-1.55887 -2.89754,3.93301 -1.24884,9.55887 2.8013,9.55887 1.00727,0 2.12194,0.7875 2.47706,1.75 0.35512,0.9625 1.08157,2.04208 1.61434,2.39908 2.10382,1.40972 -0.28008,3.85092 -3.76055,3.85092 -4.09598,0 -28.35615,-5.1724 -35.28803,-7.5236 -6.90058,-2.34059 -14.79462,-7.09552 -16.76024,-10.09544 -1.13751,-1.73606 -2.03229,-2.26263 -2.70376,-1.59116 -1.23037,1.23037 1.16519,15.31074 2.67963,15.75009 0.55559,0.16119 2.24767,0.56422 3.76017,0.89564 3.05773,0.67 3.5666,2.64187 1.19063,4.61374 -2.53049,2.10012 -12.78908,1.19545 -18.39971,-1.62261 -2.65726,-1.33466 -5.26784,-2.42666 -5.80129,-2.42666 -0.53345,0 -2.1793,-0.9513 -3.65743,-2.114 -1.47814,-1.16271 -2.80152,-1.95021 -2.94085,-1.75 -0.13933,0.2002 -0.82785,3.289 -1.53005,6.864 -1.35297,6.88821 -4.99074,15.13793 -8.18611,18.56445 -2.55213,2.73675 -2.50216,2.89758 1.66407,5.35571 l 3.58926,2.11772 4.87441,-4.90011 c 2.68092,-2.69506 6.12826,-5.13307 7.66074,-5.4178 1.53248,-0.28474 3.91133,-0.79839 5.28633,-1.14145 5.80731,-1.44891 22.64979,-0.43514 25.85675,1.55635 1.20907,0.75082 3.14617,3.31919 4.30469,5.70748 1.15851,2.38829 2.38362,3.90295 2.72247,3.3659 1.06128,-1.68201 7.80895,-5.06 11.48519,-5.74967 2.96751,-0.55671 3.93779,-0.2426 6.18152,2.00114 1.46383,1.46382 2.73966,2.52172 2.83519,2.35089 0.0955,-0.17084 0.87506,-2.32994 1.73229,-4.79802 2.21827,-6.38672 3.92241,-6.70191 32.3819,-5.9892 6.05,0.15151 11.9,0.73173 13,1.28938 2.64445,1.34062 4.42896,3.75376 4.4682,6.04219 0.0287,1.67498 0.26937,1.62646 2.48023,-0.5 1.54442,-1.48546 2.09825,-2.70572 1.5,-3.30496 -0.52164,-0.5225 -0.94843,-2.64588 -0.94843,-4.71862 0,-2.8679 0.3439,-3.63664 1.43889,-3.21646 0.79139,0.30369 1.72535,1.85636 2.07546,3.45039 0.51368,2.33881 1.40869,3.10615 4.63674,3.97538 3.20063,0.86184 4.29846,1.791 5.49244,4.64859 l 1.49225,3.57145 3.18211,-2.95027 c 1.75016,-1.62265 4.46772,-3.74821 6.03901,-4.72346 2.08855,-1.2963 2.5592,-2.0709 1.75,-2.8801 -0.60879,-0.60879 -1.1069,-2.0519 -1.1069,-3.2069 0,-1.155 -0.55123,-2.65123 -1.22496,-3.32496 -0.96661,-0.96661 -0.95898,-1.65086 0.0362,-3.2444 1.09815,-1.75842 0.86871,-2.49556 -1.77504,-5.70289 -2.91376,-3.53489 -3.82676,-7.48931 -2.27089,-9.83574 0.40408,-0.6094 2.87219,-2.04659 5.48469,-3.19377 5.14452,-2.25902 5.43449,-2.74598 3.40955,-5.72573 -0.73725,-1.08488 -1.85963,-4.62197 -2.49416,-7.860205 -1.45863,-7.44382 -6.24181,-14.74799 -14.13663,-21.58739 -3.31582,-2.87255 -6.02876,-6.00854 -6.02876,-6.96887 0,-2.22943 2.72767,-4.60393 6.25,-5.44079 3.9518,-0.93889 3.37253,-2.65817 -2.15945,-6.40925 -6.52948,-4.427464 -9.8417,-4.725203 -21.25155,-1.91032 -9.73769,2.40235 -12.839,2.20371 -12.839,-0.822324 0,-0.784991 1.13653,-2.17194 2.52562,-3.082109 2.33624,-1.53076 2.66084,-1.532489 4.32874,-0.02305 2.23308,2.020909 4.52319,2.086735 6.10929,0.175604 1.83907,-2.215952 0.28294,-3.633036 -3.79475,-3.455661 -2.01789,0.08777 -7.7189,-1.300109 -12.6689,-3.084186 -8.63906,-3.113685 -9.62163,-3.246565 -24.5,-3.313315 -27.3796,-0.122836 -43.96023,1.983055 -52.07772,6.614344 -4.18615,2.38833 -6.92228,1.746563 -6.92228,-1.623638 0,-1.664105 1.80727,-3.953335 6,-7.600058 3.3,-2.870252 6,-5.606325 6,-6.080161 0,-0.476559 -1.38182,-0.465221 -3.09242,0.02537 -3.13514,0.899147 -13.99037,6.672488 -14.90758,7.928584 -0.275,0.376604 -3.0091,2.52205 -6.07577,4.767658 -8.25175,6.042436 -12.92423,10.756172 -12.92423,13.038342 0,2.10179 -1.78412,3.23891 -5.08179,3.23891 -1.35624,0 -1.91821,-0.70065 -1.91821,-2.39159 0,-2.82092 -3.02027,-3.925627 -8.15232,-2.98184 -3.99743,0.73514 -11.84768,5.03342 -11.84768,6.48701 0,0.56611 -0.675,1.70428 -1.5,2.52928 -2.87225,2.87225 -1.72495,4.06813 4.75,4.95112 3.4375,0.46876 7.50232,0.74817 9.03293,0.62089 3.58865,-0.29841 7.14346,2.86635 6.27899,5.59003 -0.61709,1.9443 -3.24931,3.15447 -6.91989,3.18145 -2.5188,0.0185 -12.16641,9.4686 -15.19076,14.87975 -1.56722,2.80407 -2.45127,5.974885 -2.45127,8.791975 0,2.42339 -0.675,6.02167 -1.5,7.99617 -0.825,1.97451 -1.5,3.72696 -1.5,3.89434 0,0.16738 2.40034,1.4787 5.33409,2.91405 l 5.33408,2.60972 -1.73363,5.12102 c -1.19029,3.51601 -1.60974,7.18733 -1.33831,11.71383 0.64297,10.72239 0.93851,11.38149 6.18131,13.78541 6.00197,2.752 5.48319,2.77563 9.11963,-0.41529 z m 423.10283,494.72268 c 0,-0.55 0.675,-1 1.5,-1 0.825,0 1.5,0.45 1.5,1 0,0.55 -0.675,1 -1.5,1 -0.825,0 -1.5,-0.45 -1.5,-1 z"
     id="path3782"
     inkscape:connector-curvature="0" />
</svg>
